<?xml version="1.0" encoding="utf-8"?>
<!-- Generator: Adobe Illustrator 22.0.0, SVG Export Plug-In . SVG Version: 6.00 Build 0)  -->
<svg version="1.1" id="Слой_1" xmlns="http://www.w3.org/2000/svg" xmlns:xlink="http://www.w3.org/1999/xlink" x="0px" y="0px"
	 viewBox="0 0 2200 550" style="enable-background:new 0 0 2200 550;" xml:space="preserve">
<style type="text/css">
	.st0{fill:none;stroke:#FBB03B;stroke-width:7;stroke-miterlimit:10;}
</style>
<path class="st0" d="M379,92.7c-12,1.4-93.6,12.4-136.7,82.6c-23.4,38.2-24.5,76.1-24.5,86.2c0,13.5,1.5,57.4,32.6,98.9
	c17.1,22.9,36.7,36.4,49,43.5"/>
<path class="st0" d="M312.2,409.3c13,6,36.9,15.1,68,15.4c32,0.4,56.6-8.6,69.8-14.5"/>
<path class="st0" d="M464.6,402.9c13.7-7.6,46.3-28.1,67.1-68.9c2.3-4.6,32.4-66.1,6.3-133.3c-23.7-60.9-84.5-103-155.3-108.4"/>
<path class="st0" d="M353.9,170.8c-41.4,16-68.4,53.3-68,92.5c0.4,37,25,61.6,30.8,67.1"/>
<path class="st0" d="M329.4,338.5c7.2,4.8,25.7,15.8,51.7,16.3c27.5,0.6,47.2-10.8,54.4-15.4"/>
<path class="st0" d="M446.4,329.5c5.9-5.5,31.1-30.1,31.7-67.1c0.7-40.1-27.4-78.5-70.7-94.3"/>
<path class="st0" d="M381.1,114.5c-2.7,0.4-6.2,1.3-9.4,3.7c0,0-4.1,2.8-6,8.1C361.2,139,290.4,441,290.4,441l9.1,29
	c0,0,77.1-331,79.8-332.8s7.3,0.9,7.3,4.5S466.4,470,466.4,470l8.2-31.7L402,135.4c-0.7-2.2-3.3-10.1-9.1-15.4
	c-1.4-1.3-3.7-3.3-7.3-4.5C383.9,114.8,382.3,114.6,381.1,114.5z"/>
<line class="st0" x1="381.1" y1="229.7" x2="382" y2="529"/>
<line class="st0" x1="114.5" y1="264.2" x2="332.1" y2="264.2"/>
<line class="st0" x1="347.8" y1="264.5" x2="416" y2="264.5"/>
<line class="st0" x1="435.5" y1="264.2" x2="1902.9" y2="264.2"/>
<line class="st0" x1="381.1" y1="114.5" x2="382" y2="17.5"/>
<path class="st0" d="M371.4,166.9c0,0,10.7-2.4,14.3-1.5c3.6,0.9,6.7,1.5,6.7,1.5"/>
<line class="st0" x1="382.5" y1="165.1" x2="382" y2="214.3"/>
<rect x="360.3" y="213.4" class="st0" width="42.6" height="16.3"/>
<rect x="425.1" y="213.4" class="st0" width="42.6" height="16.3"/>
</svg>
