<?xml version="1.0" encoding="utf-8"?>
<!-- Generator: Adobe Illustrator 22.0.0, SVG Export Plug-In . SVG Version: 6.00 Build 0)  -->
<svg version="1.1" id="Слой_1" xmlns="http://www.w3.org/2000/svg" xmlns:xlink="http://www.w3.org/1999/xlink" x="0px" y="0px"
	 viewBox="0 0 2000 880" style="enable-background:new 0 0 2000 880;" xml:space="preserve">
<style type="text/css">
	.st0{fill:none;stroke:#FFFFFF;stroke-width:7;stroke-miterlimit:10;}
</style>
<path class="st0" d="M293.4,219.2c-13.3,1.5-103.8,13.6-151.7,90.3c-26,41.7-27.2,83.2-27.2,94.2c0,14.8,1.7,62.7,36.2,108.1
	c19,25,40.7,39.8,54.4,47.5"/>
<path class="st0" d="M219.3,565.2c14.4,6.6,40.9,16.5,75.4,16.8c35.5,0.4,62.8-9.4,77.4-15.8"/>
<path class="st0" d="M388.4,558.2c15.2-8.3,51.4-30.7,74.4-75.3c2.6-5,35.9-72.2,7-145.7c-26.3-66.6-93.7-112.6-172.3-118.5"/>
<path class="st0" d="M265.6,304.5c-45.9,17.5-75.9,58.2-75.4,101.1c0.4,40.4,27.7,67.3,34.2,73.3"/>
<path class="st0" d="M238.4,487.8c8,5.2,28.5,17.3,57.4,17.8c30.5,0.7,52.4-11.8,60.3-16.8"/>
<path class="st0" d="M368.2,478c6.5-6,34.5-32.9,35.2-73.3c0.8-43.8-30.4-85.8-78.4-103.1"/>
<path class="st0" d="M295.8,243c-3,0.4-6.9,1.4-10.4,4c0,0-4.5,3.1-6.7,8.9c-5,13.9-83.5,343.9-83.5,343.9l10.1,31.7
	c0,0,85.5-361.7,88.5-363.7c3-2,8.1,1,8.1,4.9s88.5,358.8,88.5,358.8l9.1-34.6l-80.5-331c-0.8-2.4-3.7-11-10.1-16.8
	c-1.6-1.4-4.1-3.6-8.1-4.9C298.9,243.3,297.1,243.1,295.8,243z"/>
<line class="st0" x1="295.8" y1="368.9" x2="296.8" y2="696"/>
<line class="st0" x1="0" y1="406.6" x2="241.4" y2="406.6"/>
<line class="st0" x1="258.8" y1="406.9" x2="334.5" y2="406.9"/>
<line class="st0" x1="356.1" y1="406.6" x2="1984" y2="406.6"/>
<line class="st0" x1="295.8" y1="243" x2="296.8" y2="137"/>
<path class="st0" d="M285,300.3c0,0,11.9-2.6,15.9-1.6c4,1,7.4,1.6,7.4,1.6"/>
<line class="st0" x1="297.3" y1="298.3" x2="296.8" y2="352.1"/>
<rect x="272.7" y="351.1" class="st0" width="47.3" height="17.8"/>
<rect x="344.6" y="351.1" class="st0" width="47.3" height="17.8"/>
</svg>
