<?xml version="1.0" encoding="utf-8"?>
<!-- Generator: Adobe Illustrator 22.1.0, SVG Export Plug-In . SVG Version: 6.00 Build 0)  -->
<svg version="1.1" id="Слой_1" xmlns="http://www.w3.org/2000/svg" xmlns:xlink="http://www.w3.org/1999/xlink" x="0px" y="0px"
	 viewBox="0 0 1200 1200" style="enable-background:new 0 0 1200 1200;" xml:space="preserve">
<style type="text/css">
	.st0{fill:none;stroke:#FFFFFF;stroke-width:8;stroke-miterlimit:10;}
</style>
<line class="st0" x1="139" y1="594" x2="1061" y2="594"/>
<line class="st0" x1="139" y1="628" x2="1061" y2="628"/>
<line class="st0" x1="143" y1="594" x2="143" y2="628"/>
<line class="st0" x1="1057" y1="594" x2="1057" y2="628"/>
<line class="st0" x1="182" y1="1013" x2="182" y2="179"/>
<line class="st0" x1="216" y1="1013" x2="216" y2="179"/>
<line class="st0" x1="182" y1="1009" x2="216" y2="1009"/>
<line class="st0" x1="182" y1="183.1" x2="216" y2="183.1"/>
<line class="st0" x1="143" y1="179" x2="1061" y2="179"/>
<line class="st0" x1="728" y1="179" x2="728" y2="594"/>
<line class="st0" x1="1019" y1="594" x2="1019" y2="179"/>
<line class="st0" x1="728" y1="320" x2="1019" y2="320"/>
<line class="st0" x1="728" y1="474.5" x2="1019" y2="474.5"/>
<line class="st0" x1="728" y1="628" x2="728" y2="1013"/>
<line class="st0" x1="1019" y1="628" x2="1019" y2="1013"/>
<line class="st0" x1="1019" y1="1009" x2="728" y2="1009"/>
<line class="st0" x1="771" y1="992" x2="976" y2="992"/>
<line class="st0" x1="775" y1="992" x2="775" y2="654"/>
<line class="st0" x1="972" y1="992" x2="972" y2="654"/>
<line class="st0" x1="771" y1="658" x2="976" y2="658"/>
<path class="st0" d="M872.2,846.9c11.5,0,20.5,8.5,20.8,19.2c0.3,11.5-10,20.4-20.8,20c-10.4-0.4-19.2-9.3-19.2-20
	c0-8.5,10-19.2,20-19.2"/>
<polyline class="st0" points="853,911.4 892,911.4 892,945 853,945 853,906 "/>
<line class="st0" x1="867" y1="928" x2="879" y2="928"/>
<polyline class="st0" points="795,688 795,773 951,773 951,688 791,688 "/>
<line class="st0" x1="812" y1="714" x2="933" y2="714"/>
<line class="st0" x1="812" y1="747" x2="933" y2="747"/>
<polyline class="st0" points="292,326 582,326 582,517 292,517 292,322 "/>
<polyline class="st0" points="419.3,517 419.3,569 454,569 454,517 "/>
<polyline class="st0" points="359,594 421,567 451,567 505,594 "/>
<line class="st0" x1="139" y1="145" x2="1061" y2="145"/>
<line class="st0" x1="139" y1="179" x2="1061" y2="179"/>
<line class="st0" x1="143" y1="145" x2="143" y2="179"/>
<line class="st0" x1="1057" y1="145" x2="1057" y2="179"/>
</svg>
