<?xml version="1.0" encoding="utf-8"?>
<!-- Generator: Adobe Illustrator 22.0.0, SVG Export Plug-In . SVG Version: 6.00 Build 0)  -->
<svg version="1.1" id="Слой_1" xmlns="http://www.w3.org/2000/svg" xmlns:xlink="http://www.w3.org/1999/xlink" x="0px" y="0px"
	 viewBox="0 0 2200 550" style="enable-background:new 0 0 2200 550;" xml:space="preserve">
<style type="text/css">
	.st0{fill:none;stroke:#FBB03B;stroke-width:7;stroke-miterlimit:10;}
</style>
<rect x="201.8" y="184.9" class="st0" width="124.8" height="105.9"/>
<rect x="184.5" y="164.1" class="st0" width="161.7" height="221.5"/>
<rect x="201.8" y="320" class="st0" width="18.4" height="12.7"/>
<rect x="144.3" y="425.9" class="st0" width="192.7" height="27.6"/>
<line class="st0" x1="234.6" y1="237.8" x2="275.4" y2="274.6"/>
<line class="st0" x1="230" y1="209.6" x2="275.4" y2="256.2"/>
<line class="st0" x1="263.9" y1="222.8" x2="297.3" y2="256.2"/>
<line class="st0" x1="268" y1="200.4" x2="289.8" y2="222.8"/>
<line class="st0" x1="346.2" y1="323.8" x2="271.4" y2="323.5"/>
<line class="st0" x1="346.2" y1="342.5" x2="303.1" y2="342.5"/>
<line class="st0" x1="194.9" y1="398.3" x2="310.5" y2="399.4"/>
<line class="st0" x1="310.5" y1="411.5" x2="184.5" y2="411.5"/>
<line class="st0" x1="297.3" y1="439.7" x2="307.1" y2="439.7"/>
<line class="st0" x1="313.4" y1="439.7" x2="320.9" y2="439.7"/>
<line class="st0" x1="186" y1="438.6" x2="176.2" y2="438.6"/>
<line class="st0" x1="169.9" y1="438.6" x2="162.4" y2="438.6"/>
<line class="st0" x1="268" y1="453.5" x2="268" y2="526"/>
<polyline class="st0" points="337,453.5 353.1,428.2 353.1,385.6 346.2,385.6 "/>
<line class="st0" x1="337" y1="427.6" x2="353.1" y2="385.6"/>
<line class="st0" x1="144.3" y1="425.9" x2="184.5" y2="385.6"/>
<polyline class="st0" points="353.1,409.5 366.9,398.9 366.3,194.6 346.2,164.1 "/>
<line class="st0" x1="268" y1="164.1" x2="268" y2="25.5"/>
<path class="st0" d="M445.7,286.7V106H92.5v180.6h88.6c3.5,0,3.5,0,3.5,0"/>
<path class="st0" d="M166.1,401.2c-11-10.1-15.4-25.5-11.5-39.7c4.4-15.9,22.4-24.9,27.6-27.6c1-0.5,1.8-0.9,2.3-1.2"/>
<path class="st0" d="M175.9,394.3c-1.1-1.2-9.9-11.2-7.5-25.3c2.5-14.7,14.8-21.2,16.1-21.9"/>
<line class="st0" x1="366.6" y1="286.7" x2="1277" y2="286.7"/>
</svg>
