<?xml version="1.0" encoding="utf-8"?>
<!-- Generator: Adobe Illustrator 22.0.0, SVG Export Plug-In . SVG Version: 6.00 Build 0)  -->
<svg version="1.1" id="Слой_1" xmlns="http://www.w3.org/2000/svg" xmlns:xlink="http://www.w3.org/1999/xlink" x="0px" y="0px"
	 viewBox="0 0 2000 880" style="enable-background:new 0 0 2000 880;" xml:space="preserve">
<style type="text/css">
	.st0{fill:none;stroke:#FFFFFF;stroke-width:7;stroke-miterlimit:10;}
</style>
<rect x="198.9" y="329.7" class="st0" width="195.7" height="128.3"/>
<rect x="171.8" y="304.5" class="st0" width="253.6" height="268.4"/>
<rect x="198.9" y="493.4" class="st0" width="28.9" height="15.4"/>
<rect x="108.7" y="621.7" class="st0" width="302.2" height="33.4"/>
<line class="st0" x1="250.3" y1="393.8" x2="314.3" y2="438.4"/>
<line class="st0" x1="243.1" y1="359.6" x2="314.3" y2="416.1"/>
<line class="st0" x1="296.3" y1="375.6" x2="348.7" y2="416.1"/>
<line class="st0" x1="302.7" y1="348.4" x2="336.9" y2="375.6"/>
<line class="st0" x1="425.3" y1="498" x2="308" y2="497.6"/>
<line class="st0" x1="425.3" y1="520.6" x2="357.8" y2="520.6"/>
<line class="st0" x1="188.1" y1="588.3" x2="369.4" y2="589.6"/>
<line class="st0" x1="369.4" y1="604.3" x2="171.8" y2="604.3"/>
<line class="st0" x1="348.7" y1="638.4" x2="364" y2="638.4"/>
<line class="st0" x1="373.9" y1="638.4" x2="385.7" y2="638.4"/>
<line class="st0" x1="174.1" y1="637.1" x2="158.8" y2="637.1"/>
<line class="st0" x1="148.9" y1="637.1" x2="137.1" y2="637.1"/>
<line class="st0" x1="302.7" y1="655.1" x2="302.7" y2="743"/>
<polyline class="st0" points="410.9,655.1 436.2,624.5 436.2,572.9 425.3,572.9 "/>
<line class="st0" x1="410.9" y1="623.8" x2="436.2" y2="572.9"/>
<line class="st0" x1="108.7" y1="621.7" x2="171.8" y2="572.9"/>
<polyline class="st0" points="436.2,601.8 457.8,589 456.9,341.4 425.3,304.5 "/>
<line class="st0" x1="302.7" y1="304.5" x2="302.7" y2="136.5"/>
<path class="st0" d="M581.4,453V234H27.5v218.8h138.9c5.5,0,5.5,0,5.5,0"/>
<path class="st0" d="M142.9,591.8c-17.2-12.2-24.1-30.9-18-48.1c6.9-19.3,35.1-30.2,43.3-33.4c1.6-0.6,2.8-1.1,3.6-1.5"/>
<path class="st0" d="M158.3,583.4c-1.7-1.5-15.5-13.6-11.8-30.7c3.9-17.8,23.2-25.7,25.2-26.5"/>
<line class="st0" x1="457.3" y1="453" x2="2000" y2="453"/>
</svg>
