<?xml version="1.0" encoding="utf-8"?>
<!-- Generator: Adobe Illustrator 22.1.0, SVG Export Plug-In . SVG Version: 6.00 Build 0)  -->
<svg version="1.1" id="layers" xmlns="http://www.w3.org/2000/svg" xmlns:xlink="http://www.w3.org/1999/xlink" x="0px" y="0px"
	 viewBox="0 0 1200 1200" style="enable-background:new 0 0 1200 1200;" xml:space="preserve">
<style type="text/css">
	.st0{fill:none;stroke:#FFFFFF;stroke-width:8;stroke-miterlimit:10;}
</style>
<line class="st0" x1="288" y1="385" x2="288" y2="828"/>
<line class="st0" x1="612" y1="540" x2="612" y2="987"/>
<line class="st0" x1="939" y1="389" x2="939" y2="829"/>
<path class="st0" d="M617.5,560.4"/>
<path class="st0" d="M285.7,409.1"/>
<line class="st0" x1="286" y1="825" x2="612" y2="987"/>
<line class="st0" x1="288" y1="389" x2="615" y2="543"/>
<line class="st0" x1="609" y1="989" x2="941" y2="825"/>
<line class="st0" x1="611" y1="542" x2="937" y2="392"/>
<line class="st0" x1="610" y1="233" x2="941" y2="392"/>
<line class="st0" x1="286" y1="388" x2="613" y2="233"/>
<line class="st0" x1="314" y1="811" x2="354" y2="792"/>
<line class="st0" x1="372" y1="783" x2="412" y2="764"/>
<line class="st0" x1="430" y1="756" x2="470" y2="737"/>
<line class="st0" x1="487" y1="728" x2="527" y2="709"/>
<line class="st0" x1="544" y1="701" x2="584" y2="682"/>
<line class="st0" x1="611" y1="508.6" x2="611" y2="464.4"/>
<line class="st0" x1="611" y1="442.6" x2="611" y2="398.4"/>
<line class="st0" x1="611" y1="376.6" x2="611" y2="332.4"/>
<line class="st0" x1="611" y1="310.6" x2="611" y2="266.4"/>
<line class="st0" x1="642" y1="682" x2="682" y2="701"/>
<line class="st0" x1="700" y1="710" x2="740" y2="729"/>
<line class="st0" x1="758" y1="737" x2="798" y2="756"/>
<line class="st0" x1="815" y1="765" x2="855" y2="784"/>
<line class="st0" x1="872" y1="792" x2="912" y2="811"/>
</svg>
