<?xml version="1.0" encoding="utf-8"?>
<!-- Generator: Adobe Illustrator 22.0.0, SVG Export Plug-In . SVG Version: 6.00 Build 0)  -->
<svg version="1.1" id="Слой_1" xmlns="http://www.w3.org/2000/svg" xmlns:xlink="http://www.w3.org/1999/xlink" x="0px" y="0px"
	 viewBox="0 0 2000 880" style="enable-background:new 0 0 2000 880;" xml:space="preserve">
<style type="text/css">
	.st0{fill:none;stroke:#FFFFFF;stroke-width:7;stroke-miterlimit:10;}
</style>
<rect x="30.2" y="369.6" class="st0" width="519.2" height="47.6"/>
<rect x="60.6" y="417.2" class="st0" width="459.4" height="48.6"/>
<line class="st0" x1="60.6" y1="203.7" x2="224.8" y2="369.6"/>
<line class="st0" x1="290.3" y1="172" x2="290.3" y2="369.6"/>
<line class="st0" x1="361.1" y1="369.6" x2="528.4" y2="198.4"/>
<line class="st0" x1="270.6" y1="465.8" x2="60.6" y2="675.1"/>
<line class="st0" x1="317.4" y1="465.8" x2="537.9" y2="686.7"/>
<polyline class="st0" points="393.6,465.8 549.4,570.4 570.4,570.4 472,465.8 "/>
<polyline class="st0" points="191.7,465.8 36,570.4 15,570.4 113.4,465.8 "/>
<path class="st0" d="M150.8,369.6c25.2-53.6,78-88.5,136.4-89.8c60.8-1.5,117.4,33.8,143.7,89.8"/>
<path class="st0" d="M441.4,495.4c-25.7,61.3-85.8,100.7-151,99.3c-62.4-1.4-118.7-39.8-143.7-98.3"/>
<path class="st0" d="M234.7,506c5.8,4.9,26.2,20.8,56.6,21.1c35.3,0.3,58.3-20.8,62.9-25.4"/>
<line class="st0" x1="292.4" y1="465.8" x2="292.4" y2="705.7"/>
<line class="st0" x1="270.4" y1="639.1" x2="313.4" y2="639.1"/>
<line class="st0" x1="415.9" y1="480.7" x2="444.5" y2="480.6"/>
<line class="st0" x1="499.1" y1="521.8" x2="524.6" y2="521.8"/>
<line class="st0" x1="66.2" y1="516" x2="88.9" y2="516.5"/>
<line class="st0" x1="131.9" y1="480.6" x2="169.5" y2="480.7"/>
<path class="st0" d="M357.5,369.6c-4.1-4.5-12-12.2-24.1-16.9c-19.7-7.7-37.3-2.9-43-1.1"/>
<line class="st0" x1="30.2" y1="393.4" x2="210.6" y2="392.9"/>
<line class="st0" x1="429.8" y1="392.9" x2="549.4" y2="393.4"/>
<line class="st0" x1="549.4" y1="380.7" x2="499.1" y2="380.2"/>
<line class="st0" x1="240" y1="438.3" x2="408.9" y2="438.3"/>
<line class="st0" x1="60.6" y1="435" x2="118.3" y2="435.2"/>
<line class="st0" x1="270.4" y1="212.2" x2="313.4" y2="212.2"/>
<line class="st0" x1="2000" y1="448.9" x2="458.2" y2="448.9"/>
</svg>
