<?xml version="1.0" encoding="utf-8"?>
<!-- Generator: Adobe Illustrator 22.0.0, SVG Export Plug-In . SVG Version: 6.00 Build 0)  -->
<svg version="1.1" id="Слой_1" xmlns="http://www.w3.org/2000/svg" xmlns:xlink="http://www.w3.org/1999/xlink" x="0px" y="0px"
	 viewBox="0 0 2200 550" style="enable-background:new 0 0 2200 550;" xml:space="preserve">
<style type="text/css">
	.st0{fill:none;stroke:#FBB03B;stroke-width:7;stroke-miterlimit:10;}
</style>
<rect x="172.5" y="209.5" class="st0" width="495" height="45"/>
<rect x="201.5" y="254.5" class="st0" width="438" height="46"/>
<line class="st0" x1="201.5" y1="52.5" x2="358" y2="209.5"/>
<line class="st0" x1="420.5" y1="22.5" x2="420.5" y2="209.5"/>
<line class="st0" x1="488" y1="209.5" x2="647.5" y2="47.5"/>
<line class="st0" x1="401.7" y1="300.5" x2="201.5" y2="498.5"/>
<line class="st0" x1="446.3" y1="300.5" x2="656.5" y2="509.5"/>
<polyline class="st0" points="519,300.5 667.5,399.5 687.5,399.5 593.7,300.5 "/>
<polyline class="st0" points="326.5,300.5 178,399.5 158,399.5 251.8,300.5 "/>
<path class="st0" d="M287.5,209.5c24-50.7,74.4-83.7,130-85c58-1.4,111.9,32,137,85"/>
<path class="st0" d="M564.5,328.5c-24.5,58-81.8,95.3-144,94c-59.5-1.3-113.2-37.7-137-93"/>
<path class="st0" d="M367.5,338.5c5.5,4.6,25,19.7,54,20c33.7,0.3,55.6-19.7,60-24"/>
<line class="st0" x1="422.5" y1="300.5" x2="422.5" y2="527.5"/>
<line class="st0" x1="401.5" y1="464.5" x2="442.5" y2="464.5"/>
<line class="st0" x1="540.2" y1="314.6" x2="567.5" y2="314.5"/>
<line class="st0" x1="619.5" y1="353.5" x2="643.9" y2="353.5"/>
<line class="st0" x1="206.8" y1="348" x2="228.5" y2="348.5"/>
<line class="st0" x1="269.5" y1="314.5" x2="305.3" y2="314.6"/>
<path class="st0" d="M484.5,209.5c-3.9-4.3-11.4-11.5-23-16c-18.8-7.3-35.6-2.7-41-1"/>
<line class="st0" x1="172.5" y1="232" x2="344.5" y2="231.5"/>
<line class="st0" x1="553.5" y1="231.5" x2="667.5" y2="232"/>
<line class="st0" x1="667.5" y1="220" x2="619.5" y2="219.5"/>
<line class="st0" x1="372.5" y1="274.5" x2="533.5" y2="274.5"/>
<line class="st0" x1="201.5" y1="271.3" x2="256.5" y2="271.5"/>
<line class="st0" x1="401.5" y1="60.5" x2="442.5" y2="60.5"/>
<line class="st0" x1="2050.5" y1="284.5" x2="580.5" y2="284.5"/>
</svg>
