<svg xmlns="http://www.w3.org/2000/svg" viewBox="6293.5 -769.538 501.001 355.912">
  <defs>
    <style>
      .cls-1 {
        fill: none;
        stroke: #fff;
        stroke-miterlimit: 10;
      }
    </style>
  </defs>
  <g id="Divan" transform="translate(6005.3 -1034.511)">
    <g id="Слой_3" transform="translate(288.7 265.511)">
      <path id="Path_1717" data-name="Path 1717" class="cls-1" d="M338.232,381.432c-.666.444-16.215,9.773-32.207,1.333A32.514,32.514,0,0,1,288.7,354.334c.222-14.66,11.772-23.989,14.438-26.21,17.547-13.327,43.535-8,66.857-3.332,14.216,2.888,16.215,5.109,30.43,7.108,5.331.666,21.768,2.888,39.981.666,29.764-3.554,52.642-16.881,80.407-35.539,8.663-5.775,15.548-11.106,28.431-17.325,21.323-10,39.315-12.661,46.2-13.327a143.411,143.411,0,0,1,31.541,0c43.757,5.553,75.52,47.755,81.739,55.974" transform="translate(-288.7 -265.511)"/>
    </g>
    <g id="Слой_4" transform="translate(364.442 318.101)">
      <path id="Path_1718" data-name="Path 1718" class="cls-1" d="M322.8,294.99A68.509,68.509,0,0,1,352.12,317.2c14.66,19.1,14.66,39.981,14.438,46.2H623.1a99.33,99.33,0,0,1,7.774-28.209c4-8.885,13.771-29.986,36.649-40.2,20.657-9.329,48.422-7.774,65.747,7.33,3.554,3.11,13.1,11.55,13.771,24.433.444,14.438-10.662,27.765-22.656,31.541-12.661,4.22-19.768-3.776-27.1-1.333-10.44,3.554-18.214,26.432-10.217,104.84" transform="translate(-322.8 -289.188)"/>
    </g>
    <g id="Слой_5" transform="translate(365.331 343.228)">
      <path id="Path_1719" data-name="Path 1719" class="cls-1" d="M323.2,300.5a53.961,53.961,0,0,1,15.1,18.214,49.013,49.013,0,0,1,4.887,24.877" transform="translate(-323.2 -300.5)"/>
    </g>
    <g id="Слой_6" transform="translate(376.659 339.896)">
      <path id="Path_1720" data-name="Path 1720" class="cls-1" d="M328.3,299a57.638,57.638,0,0,1,11.106,11.772,58.4,58.4,0,0,1,9.329,23.322" transform="translate(-328.3 -299)"/>
    </g>
    <g id="Слой_7" transform="translate(691.622 341.007)">
      <path id="Path_1721" data-name="Path 1721" class="cls-1" d="M484.76,299.5A84,84,0,0,0,474.1,321.045a77.42,77.42,0,0,0-4,23.767" transform="translate(-470.1 -299.5)"/>
    </g>
    <g id="Слой_9" transform="translate(675.407 343.228)">
      <path id="Path_1722" data-name="Path 1722" class="cls-1" d="M481.458,300.5a70.678,70.678,0,0,0-12.439,18.214,68.274,68.274,0,0,0-6.219,22.878" transform="translate(-462.8 -300.5)"/>
    </g>
    <g id="Слой_8" transform="translate(331.124 320.127)">
      <path id="Path_1723" data-name="Path 1723" class="cls-1" d="M307.8,290.322A81.018,81.018,0,0,1,335.565,311.2c28.875,33.762,18.436,79.518,16.881,85.96A38.368,38.368,0,0,1,364,376.948a36.133,36.133,0,0,1,12.216-7.108q137.935-.333,275.87-.888a32.094,32.094,0,0,1,15.326,10,30.118,30.118,0,0,1,7.108,20.435,148.215,148.215,0,0,1,.222-33.54c2.221-17.769,5.775-45.534,27.1-63.081,5.109-4.22,13.549-9.551,26.21-12.661" transform="translate(-307.8 -290.1)"/>
    </g>
    <g id="Слой_10" transform="translate(338.232 380.099)">
      <path id="Path_1724" data-name="Path 1724" class="cls-1" d="M311,317.1a170.582,170.582,0,0,1,5.553,17.547c5.775,21.545,6.441,39.093,7.33,60.638.222,7.774.666,18.658.444,31.541,4.442-.222,8.663-.444,13.1-.444,1.111-3.554,2-7.33,3.11-11.106.888-3.332,1.555-6.664,2.221-9.773q167.588,0,335.4-.222c1.555,6.441,2.888,12.883,4.442,19.546l18.658,2" transform="translate(-311 -317.1)"/>
    </g>
    <g id="Слой_11" transform="translate(344.669 562.372)">
      <path id="Path_1725" data-name="Path 1725" class="cls-1" d="M321.454,443.226a16.425,16.425,0,0,0,11.55,6c.888,0,8,.222,11.772-4.887,4.442-5.775,2.221-15.548-2.887-19.546-7.552-6-23.1-1.555-27.1,9.329-2.665,7.552.888,16.659,7.33,20.657,8.44,5.331,18.436.222,21.1-1.111,12.216-6.219,18.214-20.213,21.545-27.765,3.332-7.774,4-12.439,9.329-17.325,2.221-2,7.33-7.774,12.883-6.664.444,0,3.776.888,4.887,3.332,2.221,5.109-6.886,12.883-7.774,13.771a30.134,30.134,0,0,1-13.771,6.219c-5.331,1.111-15.1,3.554-22.656-2.221-1.111-.888-5.553-4.22-6-9.551-.444-6.219,5.109-11.55,9.551-13.327,7.774-3.11,18.658,1.333,25.544,11.772" transform="translate(-313.898 -399.161)"/>
    </g>
    <g id="Слой_14" transform="translate(403.327 566.166)">
      <path id="Path_1726" data-name="Path 1726" class="cls-1" d="M352.953,431.585a20.356,20.356,0,0,0,4.887-7.774c1.111-2.888,2.221-6,.888-7.552-2-2.443-9.107-.888-13.549,3.11-3.332,3.11-6.441,8.885-4,12.439s8.885,2.443,10,2.221c7.108-1.111,11.106-6.886,12.216-8.44a18.835,18.835,0,0,1,4.664-5.331c2.221-1.777,7.33-4.887,8.885-3.554,2.665,2.221-9.329,19.546-9.551,19.324,0,0,12.883-18.88,20.213-20.657.666-.222,2.443-.666,3.554.222,1.777,1.333.666,5.109.444,5.331-.444,1.555-1.333,2.443-2.665,4.22-2.888,3.554-4.22,3.776-4.887,5.775-.444,1.333-.444,3.554.888,4.442,1.333,1.111,3.554.444,4.664,0,4.887-1.777,6.886-6,10.662-10.662a42.01,42.01,0,0,1,9.551-8.885s-7.108,5.109-9.329,13.549c-.444,1.333-1.333,5.331.222,6.441.222.222,1.777,1.111,6.441-1.777,10-6,16.437-17.769,15.77-18.214s-9.329,9.329-9.107,16.659c0,.666.222,2.888,1.333,3.554,1.333.666,3.11-.666,4.442-1.555,8.663-6.441,15.1-19.991,19.546-19.1a2.655,2.655,0,0,1,1.777.888c1.555,1.333,1.333,4,1.333,5.331-.444,6-9.551,13.1-10.662,13.771,8.218-10.884,14.438-15.548,17.992-17.769,4-2.443,5.109-2,5.553-1.777,1.333,1.111-.444,5.109-.666,5.775-2,4.664-4.887,5.331-6,9.329-.222.444-1.111,4.22.444,5.109,1.111.888,3.332-.444,4.664-1.333a22.361,22.361,0,0,0,7.774-8.44" transform="translate(-340.306 -383.539)"/>
      <path id="Path_1727" data-name="Path 1727" class="cls-1" d="M404.318,441.585a13.1,13.1,0,0,0,8.218,5.553c7.33,1.333,15.77-4.442,16.215-11.994.444-6.219-4.664-10.44-5.109-10.662-6-4.664-13.993-2-15.992-1.111-2.221.888-10.217,3.554-12.216,11.55a15.851,15.851,0,0,0,6,16.215c6.664,5.109,17.547,4.22,24.877-3.11,5.109-6,12.883-14.66,22.878-24.433,11.328-11.106,25.544-23.767,26.432-22.656.888.888-9.329,13.549-13.993,19.324-6.219,7.552-11.55,12.883-14.66,22.434-.666,2.221-2.443,7.552-.888,8.218,2,1.111,8.885-7.33,20.213-20.435,14.66-16.881,27.543-29.986,27.987-29.542s-7.552,11.55-15.1,21.323c-3.776,4.887-9.107,11.772-11.328,21.768-1.111,5.553-.444,7.33.444,8.218,2.221,1.777,7.774-1.333,10-2.665,4-2.443,4.887-4.22,8.44-4.887,2.443-.444,2.665.222,5.553,0,5.109-.444,11.55-3.332,11.55-7.108a5.679,5.679,0,0,0-4.22-5.109c-2.443-.444-4.664,1.555-8,4.887-2.665,2.443-3.776,3.554-4.442,5.775-1.333,3.776-.444,8.885,2.443,10.44,1.333.666,4,1.111,9.551-2.443,15.77-10.217,35.317-39.093,32.651-40.87-2.221-1.555-14.66,21.768-22.212,32.873-2.221,3.332-2.221,7.108-.444,9.329,2.221,2.443,6,1.777,6.219,1.777,5.109-1.111,7.774-7.33,8.662-10,2-5.331,2.221-10.44,2.443-10.217.222,0-2,8.218,1.777,11.772,2.221,2,5.553,1.555,8.44,1.333,1.111-.222,11.328-1.333,12.661-7.108.444-2.443-.666-5.775-2.666-6.441-2-.888-4.442,1.333-6.886,3.332a12.513,12.513,0,0,0-4,4.887,11.891,11.891,0,0,0-.888,5.775c0,.666.444,4.664,2.666,6,3.554,2,10.884-4.22,13.771-6.664,17.1-15.1,28.875-36.649,27.987-37.094-.666-.222-6,7.108-23.989,35.983-1.555,2.221-1.777,4.664-.666,6.441,1.555,2.443,5.331,2.221,6.219,2,6.886-.666,10-10.217,10.217-10.662" transform="translate(-273.504 -400.869)"/>
    </g>
  </g>
</svg>
