<?xml version="1.0" encoding="utf-8"?>
<!-- Generator: Adobe Illustrator 22.0.0, SVG Export Plug-In . SVG Version: 6.00 Build 0)  -->
<svg version="1.1" id="Слой_1" xmlns="http://www.w3.org/2000/svg" xmlns:xlink="http://www.w3.org/1999/xlink" x="0px" y="0px"
	 viewBox="0 0 1920 1080" style="enable-background:new 0 0 1920 1080;" xml:space="preserve">
<style type="text/css">
	.st0{display:none;}
	.st1{display:inline;}
	.st2{display:inline;fill:none;stroke:#FFFFFF;stroke-width:20;stroke-miterlimit:10;}
	.st3{fill:none;stroke:#FFFFFF;stroke-width:20;stroke-miterlimit:10;}
</style>
<g id="Слой_1_2_" class="st0">
	<g id="Слой_1_1_" class="st1">
		<g>
			<rect x="-3.5" y="0.5" width="1926" height="1079"/>
			<path d="M1922,1v1078H-3V1H1922 M1923,0H-4v1080h1927V0L1923,0z"/>
		</g>
	</g>
	<path class="st2" d="M1013,546l181,180l-435-1l-4-432l175,171c7,6,7,6,7,6s-3-2,0,0"/>
</g>
<g id="Слой_2_1_">
	<line class="st3" x1="801.7" y1="725" x2="802" y2="704"/>
</g>
<g id="Слой_3">
	<line class="st3" x1="852" y1="722" x2="852.3" y2="701"/>
</g>
<g id="Слой_4">
	<line class="st3" x1="903" y1="723" x2="903.3" y2="702"/>
</g>
<g id="Слой_5">
	<line class="st3" x1="956" y1="723" x2="956.3" y2="702"/>
</g>
<g id="Слой_6">
	<line class="st3" x1="956" y1="722" x2="956.3" y2="701"/>
	<line class="st3" x1="1006" y1="723" x2="1006.3" y2="702"/>
</g>
<g id="Слой_7">
	<line class="st3" x1="1062" y1="722" x2="1062.3" y2="701"/>
</g>
<g id="Слой_8">
	<line class="st3" x1="1108" y1="723" x2="1108.3" y2="702"/>
</g>
<g id="Слой_9">
	<polygon class="st3" points="806,675 903,642 1168,372 1108,318 843,586 	"/>
</g>
<g id="Слой_10">
	<line class="st3" x1="1070" y1="357" x2="1123" y2="407"/>
</g>
<g id="Слой_11">
	<line class="st3" x1="845" y1="584" x2="892" y2="636"/>
</g>
<g id="Слой_12">
	<path class="st3" d="M882,510l-60-64v127"/>
</g>
<g id="Слой_13">
	<polyline class="st3" points="972,596 1038,665 903,665 	"/>
</g>
</svg>
