<svg xmlns="http://www.w3.org/2000/svg" viewBox="0 0 3186.27 2133.151">
  <defs>
    <style>
      .cls-1, .cls-2 {
        fill: none;
        stroke: #000;
        stroke-width: 10px;
      }

      .cls-1 {
        stroke-miterlimit: 10;
      }
    </style>
  </defs>
  <g id="Group_1076" data-name="Group 1076" transform="translate(-3290 -306.982)">
    <g id="Слой_3" transform="translate(3295 312)">
      <path id="Path_1717" data-name="Path 1717" class="cls-1" d="M585.03,959.048c-3.984,2.656-97.008,58.468-192.682,7.975A194.518,194.518,0,0,1,288.7,796.932c1.328-87.7,70.427-143.517,86.377-156.8,104.977-79.73,260.452-47.861,399.978-19.934,85.049,17.278,97.008,30.565,182.05,42.524C989,666.7,1087.335,680,1196.3,666.7c178.066-21.262,314.936-100.992,481.043-212.615,51.827-34.549,93.017-66.443,170.091-103.649,127.567-59.826,235.206-75.746,276.4-79.73a857.972,857.972,0,0,1,188.7,0c261.781,33.221,451.806,285.7,489.011,334.87" transform="translate(-288.7 -265.505)"/>
    </g>
    <g id="Слой_4" transform="translate(3748.134 626.664)">
      <path id="Path_1718" data-name="Path 1718" class="cls-1" d="M322.8,323.9A409.863,409.863,0,0,1,498.21,456.769c87.7,114.267,87.7,239.19,86.377,276.4H2119.374A594.261,594.261,0,0,1,2165.882,564.4c23.931-53.156,82.387-179.394,219.257-240.5,123.582-55.812,289.689-46.509,393.338,43.852,21.262,18.606,78.372,69.1,82.386,146.173,2.656,86.377-63.787,166.107-135.542,188.7-75.746,25.247-118.264-22.59-162.128-7.975-62.458,21.262-108.967,158.132-61.124,627.215" transform="translate(-322.8 -289.189)"/>
    </g>
    <g id="Слой_5" transform="translate(3753.452 776.984)">
      <path id="Path_1719" data-name="Path 1719" class="cls-1" d="M323.2,300.5a322.826,322.826,0,0,1,90.337,108.967A293.228,293.228,0,0,1,442.774,558.3" transform="translate(-323.2 -300.5)"/>
    </g>
    <g id="Слой_6" transform="translate(3821.223 757.05)">
      <path id="Path_1720" data-name="Path 1720" class="cls-1" d="M328.3,299a344.82,344.82,0,0,1,66.443,70.427,349.377,349.377,0,0,1,55.812,139.526" transform="translate(-328.3 -299)"/>
    </g>
    <g id="Слой_7" transform="translate(5705.52 763.696)">
      <path id="Path_1721" data-name="Path 1721" class="cls-1" d="M557.8,299.5A502.548,502.548,0,0,0,494.03,428.4,463.178,463.178,0,0,0,470.1,570.583" transform="translate(-470.1 -299.5)"/>
    </g>
    <g id="Слой_9" transform="translate(5608.512 776.984)">
      <path id="Path_1722" data-name="Path 1722" class="cls-1" d="M574.423,300.5a422.837,422.837,0,0,0-74.417,108.967A408.455,408.455,0,0,0,462.8,546.337" transform="translate(-462.8 -300.5)"/>
    </g>
    <g id="Слой_8" transform="translate(3548.805 638.81)">
      <path id="Path_1723" data-name="Path 1723" class="cls-1" d="M307.8,291.4a484.7,484.7,0,0,1,166.107,124.9C646.654,618.292,584.2,892.032,574.9,930.572a229.543,229.543,0,0,1,69.123-120.921,216.173,216.173,0,0,1,73.083-42.524q825.21-1.992,1650.419-5.312a192,192,0,0,1,91.689,59.826A180.185,180.185,0,0,1,2501.737,943.9a886.67,886.67,0,0,1,1.328-200.657c13.287-106.3,34.55-272.411,162.128-377.388,30.565-25.247,81.058-57.14,156.8-75.746" transform="translate(-307.8 -290.105)"/>
    </g>
    <g id="Слой_10" transform="translate(3591.33 997.568)">
      <path id="Path_1724" data-name="Path 1724" class="cls-1" d="M307.906,322.065c12.955,34.369,27.139,64.448,36.316,100.012,34.55,128.9,38.534,233.878,43.852,362.773,1.328,46.509.89,116.588-.438,193.662,26.575-1.328,54.922-7.621,81.466-7.621,6.647-21.262,11.965-43.852,18.606-66.443,5.313-19.934,9.3-39.868,13.287-58.468q1002.612,0,2006.562-1.328c9.3,38.534,17.278,77.074,26.575,116.936l115.927,17.991" transform="translate(-311 -317.1)"/>
    </g>
    <g id="Слой_11" transform="translate(3629.83 2088.043)">
      <path id="Path_1725" data-name="Path 1725" class="cls-1" d="M359.111,662.776a98.263,98.263,0,0,0,69.1,35.9c5.313,0,47.861,1.328,70.427-29.237,26.574-34.55,13.287-93.017-17.272-116.936-45.181-35.9-138.2-9.3-162.128,55.812-15.944,45.18,5.313,99.664,43.852,123.583,50.493,31.893,110.3,1.328,126.233-6.647,73.083-37.206,108.967-120.926,128.9-166.107,19.934-46.509,23.93-74.417,55.812-103.648,13.287-11.965,43.852-46.509,77.074-39.868,2.656,0,22.59,5.313,29.237,19.934,13.287,30.565-41.2,77.074-46.509,82.386a180.281,180.281,0,0,1-82.386,37.206c-31.893,6.647-90.337,21.262-135.542-13.287-6.647-5.312-33.222-25.247-35.9-57.14-2.656-37.206,30.565-69.1,57.14-79.73,46.509-18.606,111.623,7.975,152.819,70.427" transform="translate(-313.896 -399.163)"/>
    </g>
    <g id="Слой_14" transform="translate(3980.765 2110.73)">
      <path id="Path_1726" data-name="Path 1726" class="cls-1" d="M415.97,513.914A121.778,121.778,0,0,0,445.207,467.4c6.647-17.278,13.287-35.9,5.313-45.18-11.965-14.615-54.483-5.312-81.058,18.606-19.934,18.606-38.534,53.156-23.93,74.418s53.155,14.615,59.826,13.287c42.524-6.647,66.443-41.2,73.083-50.493a112.679,112.679,0,0,1,27.9-31.893c13.287-10.631,43.852-29.237,53.155-21.262,15.944,13.287-55.812,116.936-57.14,115.608,0,0,77.074-112.951,120.926-123.583,3.984-1.328,14.615-3.984,21.262,1.328,10.631,7.975,3.984,30.565,2.656,31.893-2.656,9.3-7.975,14.615-15.944,25.247-17.278,21.262-25.247,22.59-29.237,34.55-2.656,7.975-2.656,21.262,5.313,26.574,7.975,6.647,21.262,2.656,27.9,0,29.237-10.631,41.2-35.9,63.786-63.786a251.336,251.336,0,0,1,57.14-53.155s-42.524,30.565-55.812,81.058c-2.656,7.975-7.975,31.893,1.328,38.534,1.328,1.328,10.631,6.647,38.534-10.631,59.826-35.9,98.336-106.3,94.346-108.967s-55.812,55.812-54.484,99.664c0,3.984,1.328,17.278,7.975,21.262,7.975,3.984,18.606-3.984,26.575-9.3,51.827-38.534,90.337-119.6,116.936-114.268a15.885,15.885,0,0,1,10.631,5.313c9.3,7.975,7.975,23.93,7.975,31.893-2.656,35.9-57.14,78.372-63.786,82.386,49.165-65.115,86.377-93.017,107.639-106.3,23.93-14.615,30.565-11.965,33.221-10.631,7.975,6.646-2.656,30.565-3.984,34.549-11.965,27.9-29.237,31.893-35.9,55.812-1.328,2.656-6.647,25.247,2.656,30.565,6.646,5.313,19.934-2.656,27.9-7.975a133.779,133.779,0,0,0,46.509-50.493" transform="translate(-340.306 -226.472)"/>
      <path id="Path_1727" data-name="Path 1727" class="cls-1" d="M450.533,644.458A78.371,78.371,0,0,0,499.7,677.679c43.852,7.975,94.345-26.574,97.008-71.755,2.656-37.206-27.9-62.458-30.565-63.786-35.9-27.9-83.715-11.965-95.674-6.647-13.287,5.313-61.124,21.262-73.083,69.1a94.83,94.83,0,0,0,35.9,97.008c39.868,30.565,104.977,25.247,148.829-18.606,30.565-35.9,77.074-87.7,136.87-146.173,67.771-66.443,152.82-142.188,158.132-135.542,5.313,5.313-55.812,81.058-83.714,115.608-37.206,45.181-69.1,77.074-87.705,134.214-3.984,13.287-14.615,45.181-5.312,49.165,11.965,6.647,53.156-43.852,120.926-122.254,87.7-100.992,164.779-179.394,167.435-176.738s-45.181,69.1-90.337,127.567c-22.59,29.237-54.483,70.427-67.771,130.229-6.647,33.221-2.656,43.852,2.656,49.165,13.287,10.631,46.509-7.975,59.826-15.944,23.93-14.615,29.237-25.247,50.493-29.237,14.615-2.656,15.944,1.328,33.221,0,30.565-2.656,69.1-19.934,69.1-42.524a33.975,33.975,0,0,0-25.246-30.565c-14.616-2.656-27.9,9.3-47.861,29.237-15.944,14.615-22.59,21.262-26.574,34.55-7.975,22.59-2.656,53.155,14.615,62.458,7.975,3.984,23.93,6.646,57.14-14.615,94.346-61.124,211.287-233.877,195.338-244.509-13.287-9.3-87.7,130.229-132.885,196.666-13.288,19.934-13.288,42.524-2.656,55.812,13.287,14.615,35.9,10.631,37.206,10.631,30.565-6.646,46.509-43.852,51.821-59.826,11.965-31.893,13.287-62.458,14.615-61.124,1.328,0-11.965,49.165,10.631,70.427,13.287,11.965,33.221,9.3,50.493,7.975,6.647-1.328,67.771-7.975,75.746-42.524,2.656-14.615-3.984-34.55-15.95-38.534-11.965-5.312-26.575,7.975-41.2,19.934a74.861,74.861,0,0,0-23.93,29.237,71.143,71.143,0,0,0-5.312,34.549c0,3.984,2.656,27.9,15.95,35.9,21.262,11.965,65.115-25.247,82.386-39.868C1432.557,586,1503,457.077,1497.69,454.415c-3.985-1.328-35.9,42.524-143.517,215.272-9.3,13.287-10.631,27.9-3.985,38.534,9.3,14.615,31.893,13.287,37.206,11.965,41.2-3.984,59.826-61.124,61.124-63.786" transform="translate(332.077 -400.869)"/>
    </g>
    <path id="Path_1720-2" data-name="Path 1720" class="cls-2" d="M2706.782,4942.176s575.1-95.8,1471.368-113.34c848.4-16.6,1698.936,146.545,1698.936,146.545s-156.2-9.358-160.564-9.908c-56.367-7.108-430.556-21.736-498.686-4.627-73.023,18.337,456.155,163.569,456.155,163.569s-667.334-139.908-762.959-135.124,390.89,154.259,380.458,154.259-512.9-134.342-1050.143-139.125c-529.715-4.717-1157.3,111.232-1157.3,111.232s412.353-105.753,333.688-118-589.869,77.761-589.869,77.761,454.617-100.067,374.178-129.34S2706.782,4942.176,2706.782,4942.176Z" transform="translate(598.242 -3230.753)"/>
  </g>
</svg>
