<?xml version="1.0" encoding="utf-8"?>
<!-- Generator: Adobe Illustrator 22.1.0, SVG Export Plug-In . SVG Version: 6.00 Build 0)  -->
<svg version="1.1" id="Слой_1" xmlns="http://www.w3.org/2000/svg" xmlns:xlink="http://www.w3.org/1999/xlink" x="0px" y="0px"
	 viewBox="0 0 1200 1200" style="enable-background:new 0 0 1200 1200;" xml:space="preserve">
<style type="text/css">
	.st0{fill:none;stroke:#FFFFFF;stroke-width:8;stroke-miterlimit:10;}
	.st1{fill:none;stroke:#FFFFFF;stroke-width:3;stroke-miterlimit:10;}
</style>
<path class="st0" d="M269,631h611c7.1,0,14.1,2.3,19.8,6.6l3.1,2.4c5.3,3.9,9.2,9.4,11.4,15.6l1.4,3.9c2.2,6.2,2.4,13,0.7,19.3
	l-2.1,7.7c-2.1,8-7.2,15-14.3,19.4v0c-5.3,3.3-11.4,5.1-17.6,5.1h-610c-2.3,0-4.6-0.3-6.7-1l0,0c-4.3-2.2-7.5-4.1-11.2-7.4l-1.8-2.1
	c-1.2-1.4-1.7-1.9-2.7-3.4l-0.7-1.1c-3.3-4.5-5.5-9.6-7.2-15h0c-1.8-7-2.1-13.3-0.5-20.3l0.3-1.1c1.4-4.6,3.6-8.8,6.1-13.1h0
	c0.1-0.1,0.1-0.3,0.2-0.5c2.7-3.5,5.2-6.9,8.5-9.8l2.2-1.5c3.8-2.5,8.3-3.8,12.8-3.8H283"/>
<line class="st0" x1="531" y1="711" x2="531" y2="977"/>
<line class="st0" x1="629" y1="711" x2="629" y2="977"/>
<line class="st0" x1="531" y1="801.3" x2="629" y2="801.3"/>
<line class="st0" x1="629" y1="833.3" x2="531" y2="833.3"/>
<line class="st0" x1="531" y1="868.7" x2="629" y2="868.7"/>
<line class="st0" x1="531" y1="892.7" x2="629" y2="892.7"/>
<line class="st0" x1="531" y1="844" x2="499.3" y2="844"/>
<path class="st0" d="M468,844.5c0.2-9,7.1-19.4,15.9-19.3c8.9,0.1,15.3,10.9,15.4,19.9c0,8.9-6.1,19.3-14.5,19.8
	C475.7,865.5,467.8,854.5,468,844.5z"/>
<path class="st0" d="M522.7,977c-12.8,16.5-34.4,24.4-60.7,26.3c-37.3,2.8-63.4-20.6-79.6-7.3c-5.1,4.2-10.5,14.4-7.7,43"/>
<polyline class="st0" points="521,977 521,1012.7 637.7,1012.7 637.7,977 517,977 "/>
<path class="st0" d="M533.7,978.7"/>
<polyline class="st0" points="537.7,1012.7 537.7,977 551.3,977 551.3,1012.7 564.7,1012.7 564.7,977 578.3,977 578.3,1012.7 
	592,1012.7 592,977 592,1012.7 "/>
<polyline class="st0" points="592,977 606.3,977 606.3,1012.7 620.7,1012.7 620.7,977 "/>
<path class="st0" d="M635.7,976.7c12.8,16.5,34.4,24.4,60.7,26.3c37.3,2.8,63.4-20.6,79.6-7.3c5.1,4.2,10.5,14.4,7.7,43"/>
<path class="st0" d="M368.4,1018.5l-0.6,0.4c-2.9,1.7-5.3,4.1-7.1,6.9l-0.2,0.4c-2.2,2.8-3.4,6.3-3.4,9.9v28.3c0,3.3,1,6.5,2.9,9.2
	l3.2,4.6c3,4.3,7.9,6.9,13.2,6.9h0c5.7,0,11-3,13.9-7.9l1.4-2.4c1.5-2.5,2.2-5.3,2.2-8.2v-30.4c0-3-0.8-5.9-2.4-8.5l-2.2-3.5
	c-2.9-4.7-8.1-7.6-13.7-7.6l-2.6,0.5c-2.1,0.4-4.1,1.2-6,2.3l-2.2,1.7"/>
<line class="st0" x1="577.3" y1="1016" x2="577.3" y2="1035.3"/>
<line class="st0" x1="375.4" y1="1083.3" x2="375.5" y2="1016.5"/>
<line class="st0" x1="376.1" y1="1069.8" x2="391.8" y2="1059.8"/>
<line class="st0" x1="376.1" y1="1054.3" x2="391.8" y2="1044.9"/>
<line class="st0" x1="375.4" y1="1069" x2="357" y2="1057.1"/>
<line class="st0" x1="375.4" y1="1052.3" x2="357" y2="1040.4"/>
<path class="st0" d="M573,1020.6l-0.6,0.4c-2.9,1.7-5.3,4.1-7.1,6.9l-0.2,0.4c-2.2,2.8-3.4,6.3-3.4,9.9v28.3c0,3.3,1,6.5,2.9,9.2
	l3.2,4.6c3,4.3,7.9,6.9,13.2,6.9l0,0c5.7,0,11-3,13.9-7.9l1.4-2.4c1.5-2.5,2.2-5.3,2.2-8.2v-30.4c0-3-0.8-5.9-2.4-8.5l-2.2-3.5
	c-2.9-4.7-8.1-7.6-13.7-7.6l-2.6,0.5c-2.1,0.4-4.1,1.2-6,2.3l-2.2,1.7"/>
<line class="st0" x1="580" y1="1085.4" x2="580.1" y2="1018.6"/>
<line class="st0" x1="580.8" y1="1071.9" x2="596.4" y2="1061.9"/>
<line class="st0" x1="580.8" y1="1056.4" x2="596.4" y2="1047"/>
<line class="st0" x1="580" y1="1071.1" x2="561.6" y2="1059.2"/>
<line class="st0" x1="580" y1="1054.4" x2="561.6" y2="1042.5"/>
<path class="st0" d="M776.4,1020l-0.6,0.4c-2.9,1.7-5.3,4.1-7.1,6.9l-0.2,0.4c-2.2,2.8-3.4,6.3-3.4,9.9v28.3c0,3.3,1,6.5,2.9,9.2
	l3.2,4.6c3,4.3,7.9,6.9,13.2,6.9l0,0c5.7,0,11-3,13.9-7.9l1.4-2.4c1.5-2.5,2.2-5.3,2.2-8.2v-30.4c0-3-0.8-5.9-2.4-8.5l-2.2-3.5
	c-2.9-4.7-8.1-7.6-13.7-7.6l-2.6,0.5c-2.1,0.4-4.1,1.2-6,2.3l-2.2,1.7"/>
<line class="st0" x1="783.4" y1="1084.7" x2="783.5" y2="1018"/>
<line class="st0" x1="784.1" y1="1071.2" x2="799.8" y2="1061.2"/>
<line class="st0" x1="784.1" y1="1055.7" x2="799.8" y2="1046.4"/>
<line class="st0" x1="783.4" y1="1070.5" x2="765" y2="1058.6"/>
<line class="st0" x1="783.4" y1="1053.7" x2="765" y2="1041.9"/>
<path class="st0" d="M356,631V270.1c0-45.1,19.7-88,53.9-117.5l9.2-7.9c28.9-24.9,66.1-38.3,104.3-37.5l127.8,2.6
	c38.5,0.8,75.4,15.9,103.4,42.3l0,0c31,29.3,48.5,70,48.5,112.6V631"/>
<line class="st0" x1="315.3" y1="631" x2="315.3" y2="440"/>
<line class="st0" x1="277.3" y1="631" x2="277.3" y2="436.7"/>
<path class="st0" d="M353,431.3l-19.8,7.1c-13.7,4.9-28.4,6.3-42.8,4.1l-16.1-2.5l-2.3-1.8c-13.4-10.1-15.2-29.6-3.9-42.1l6.2-6.8
	l0,0c24.7-8.7,51.5-9.3,76.6-1.9l2,0.6"/>
<line class="st0" x1="840.7" y1="631" x2="840.7" y2="440"/>
<line class="st0" x1="878.7" y1="631" x2="878.7" y2="436.7"/>
<path class="st0" d="M803,431.3l19.8,7.1c13.7,4.9,28.4,6.3,42.8,4.1l16.1-2.5l2.3-1.8c13.4-10.1,15.2-29.6,3.9-42.1l-6.2-6.8l0,0
	c-24.7-8.7-51.5-9.3-76.6-1.9l-2,0.6"/>
<line class="st0" x1="579" y1="274" x2="579" y2="560"/>
<path class="st0" d="M629,336L629,336c15.5-34,47.6-57.4,84.7-61.9l1-0.1"/>
<path class="st0" d="M630,415.3L630,415.3c15.5-34,47.6-57.4,84.7-61.9l1-0.1"/>
<path class="st0" d="M629,495.6L629,495.6c15.5-34,47.6-57.4,84.7-61.9l1-0.1"/>
<path class="st0" d="M529.8,335.5L529.8,335.5c-15.5-34-47.6-57.4-84.7-61.9l-1-0.1"/>
<path class="st0" d="M528.8,414.8L528.8,414.8c-15.5-34-47.6-57.4-84.7-61.9l-1-0.1"/>
<path class="st0" d="M529.8,495.1L529.8,495.1c-15.5-34-47.6-57.4-84.7-61.9l-1-0.1"/>
<path class="st1" d="M522.7,977c-12.8,16.5-34.4,46.6-60.7,48.6c-37.3,2.8-70.3-22.3-86.5-9c-5.1,4.2-3.6,16.1-0.7,44.7"/>
<path class="st1" d="M633.7,975.5c12.8,16.5,34.4,46.6,60.7,48.6c37.3,2.8,70.3-22.3,86.5-9c5.1,4.2,3.6,16.1,0.7,44.7"/>
</svg>
