<?xml version="1.0" encoding="utf-8"?>
<!-- Generator: Adobe Illustrator 22.0.0, SVG Export Plug-In . SVG Version: 6.00 Build 0)  -->
<svg version="1.1" id="Слой_1" xmlns="http://www.w3.org/2000/svg" xmlns:xlink="http://www.w3.org/1999/xlink" x="0px" y="0px"
	 viewBox="0 0 2200 550" style="enable-background:new 0 0 2200 550;" xml:space="preserve">
<style type="text/css">
	.st0{fill:none;stroke:#FBB03B;stroke-width:7;stroke-miterlimit:10;}
</style>
<rect x="359.5" y="241.3" class="st0" width="211.2" height="145.1"/>
<rect x="420.7" y="115.5" class="st0" width="107.8" height="125.8"/>
<path class="st0" d="M570.7,241.3"/>
<polyline class="st0" points="570.7,245.4 594,222.1 597.4,222.1 597.4,342.3 570.7,386.4 "/>
<polyline class="st0" points="538.1,241.3 538,129.1 528.5,115.5 "/>
<line class="st0" x1="597.4" y1="222.1" x2="541.4" y2="222.1"/>
<polyline class="st0" points="359.5,241.3 400,222.1 420.7,222.1 "/>
<line class="st0" x1="401.9" y1="241.3" x2="401.7" y2="222.1"/>
<rect x="449.2" y="268.5" class="st0" width="34.5" height="22.4"/>
<line class="st0" x1="466.4" y1="316.6" x2="466.4" y2="291"/>
<line class="st0" x1="444.9" y1="350.3" x2="570.7" y2="350.3"/>
<line class="st0" x1="359.5" y1="355.9" x2="391.4" y2="355.9"/>
<line class="st0" x1="359.5" y1="369.9" x2="431.1" y2="369.5"/>
<path class="st0" d="M571.5,319c-14.9,0-37.9,0-37.9,0H359.1h207.8"/>
<path class="st0" d="M597.9,297.4"/>
<ellipse class="st0" cx="387.5" cy="264.9" rx="8.2" ry="7.6"/>
<ellipse class="st0" cx="546.1" cy="295.4" rx="8.2" ry="7.6"/>
<line class="st0" x1="571.5" y1="284.6" x2="597.9" y2="260.5"/>
<line class="st0" x1="571.5" y1="346.7" x2="597.9" y2="319"/>
<line class="st0" x1="359.1" y1="287.8" x2="184.5" y2="287.8"/>
<line class="st0" x1="597.9" y1="268.5" x2="1763" y2="272.6"/>
<line class="st0" x1="474.2" y1="529" x2="474.2" y2="386.4"/>
<line class="st0" x1="456.9" y1="490.5" x2="491.4" y2="490.5"/>
<line class="st0" x1="514" y1="241.3" x2="513.8" y2="178.8"/>
<line class="st0" x1="498.3" y1="228.5" x2="498.3" y2="115.5"/>
<line class="st0" x1="453.5" y1="238.9" x2="453.5" y2="196.4"/>
<line class="st0" x1="472.4" y1="183.6" x2="472.4" y2="157.1"/>
<line class="st0" x1="437.1" y1="192.4" x2="437.1" y2="115.5"/>
<line class="st0" x1="449.2" y1="146.7" x2="449.2" y2="115.5"/>
<line class="st0" x1="474.6" y1="115.5" x2="474.2" y2="14.5"/>
<line class="st0" x1="458.6" y1="38.5" x2="491.4" y2="38.5"/>
<path class="st0" d="M472.4,62.6c-13.3,0.3-98.7,3.4-160.4,70.5c-58.9,64.1-52.2,138.6-50.9,151.5"/>
<path class="st0" d="M688,283.8c-1.6,15.7-9.6,75.1-63.8,123.4c-60.9,54.3-135.2,54.7-150,54.5"/>
</svg>
