<?xml version="1.0" encoding="utf-8"?>
<!-- Generator: Adobe Illustrator 22.0.0, SVG Export Plug-In . SVG Version: 6.00 Build 0)  -->
<svg version="1.1" id="Слой_1" xmlns="http://www.w3.org/2000/svg" xmlns:xlink="http://www.w3.org/1999/xlink" x="0px" y="0px"
	 viewBox="0 0 2000 880" style="enable-background:new 0 0 2000 880;" xml:space="preserve">
<style type="text/css">
	.st0{fill:none;stroke:#FFFFFF;stroke-width:7;stroke-miterlimit:10;}
</style>
<rect x="221.3" y="434.4" class="st0" width="267.7" height="187.4"/>
<rect x="298.8" y="271.9" class="st0" width="136.6" height="162.5"/>
<path class="st0" d="M488.9,434.4"/>
<polyline class="st0" points="488.9,439.7 518.5,409.6 522.8,409.6 522.8,564.9 488.9,621.8 "/>
<polyline class="st0" points="447.6,434.4 447.5,289.5 435.5,271.9 "/>
<line class="st0" x1="522.8" y1="409.6" x2="451.8" y2="409.6"/>
<polyline class="st0" points="221.3,434.4 272.6,409.6 298.8,409.6 "/>
<line class="st0" x1="275" y1="434.4" x2="274.8" y2="409.6"/>
<rect x="335" y="469.6" class="st0" width="43.7" height="28.9"/>
<line class="st0" x1="356.8" y1="531.7" x2="356.8" y2="498.6"/>
<line class="st0" x1="329.5" y1="575.2" x2="488.9" y2="575.2"/>
<line class="st0" x1="221.3" y1="582.4" x2="261.7" y2="582.4"/>
<line class="st0" x1="221.3" y1="600.5" x2="312" y2="600"/>
<path class="st0" d="M490,534.8c-18.9,0-48,0-48,0H220.8h263.4"/>
<path class="st0" d="M523.4,506.9"/>
<ellipse class="st0" cx="256.8" cy="464.9" rx="10.4" ry="9.8"/>
<ellipse class="st0" cx="457.8" cy="504.3" rx="10.4" ry="9.8"/>
<line class="st0" x1="490" y1="490.3" x2="523.4" y2="459.2"/>
<line class="st0" x1="490" y1="570.6" x2="523.4" y2="534.8"/>
<line class="st0" x1="220.8" y1="494.5" x2="-0.5" y2="494.5"/>
<line class="st0" x1="523.4" y1="469.6" x2="2000" y2="474.8"/>
<line class="st0" x1="366.6" y1="806" x2="366.6" y2="621.8"/>
<line class="st0" x1="344.7" y1="756.3" x2="388.4" y2="756.3"/>
<line class="st0" x1="417.1" y1="434.4" x2="416.8" y2="353.7"/>
<line class="st0" x1="397.2" y1="417.9" x2="397.2" y2="271.9"/>
<line class="st0" x1="340.4" y1="431.3" x2="340.4" y2="376.4"/>
<line class="st0" x1="364.4" y1="359.9" x2="364.4" y2="325.7"/>
<line class="st0" x1="319.6" y1="371.3" x2="319.6" y2="271.9"/>
<line class="st0" x1="335" y1="312.2" x2="335" y2="271.9"/>
<line class="st0" x1="367.2" y1="271.9" x2="366.6" y2="141.5"/>
<line class="st0" x1="346.9" y1="172.5" x2="388.4" y2="172.5"/>
<path class="st0" d="M364.4,203.6c-16.9,0.4-125.1,4.4-203.3,91.1c-74.6,82.8-66.2,179-64.5,195.7"/>
<path class="st0" d="M637.6,489.3c-2,20.3-12.2,97-80.9,159.4c-77.2,70.1-171.3,70.6-190.1,70.4"/>
</svg>
