<?xml version="1.0" encoding="utf-8"?>
<!-- Generator: Adobe Illustrator 22.1.0, SVG Export Plug-In . SVG Version: 6.00 Build 0)  -->
<svg version="1.1" id="Слой_1" xmlns="http://www.w3.org/2000/svg" xmlns:xlink="http://www.w3.org/1999/xlink" x="0px" y="0px"
	 viewBox="0 0 1200 1200" style="enable-background:new 0 0 1200 1200;" xml:space="preserve">
<style type="text/css">
	.st0{fill:none;stroke:#FFFFFF;stroke-width:8;stroke-miterlimit:10;}
</style>
<line class="st0" x1="1023.1" y1="510.6" x2="1023.1" y2="795.6"/>
<line class="st0" x1="1131.1" y1="510.6" x2="1131.1" y2="795.6"/>
<line class="st0" x1="429.6" y1="400.3" x2="429.6" y2="617.9"/>
<line class="st0" x1="788" y1="396.8" x2="788" y2="618.4"/>
<path class="st0" d="M1023.1,518.3V502c0.4-5.7,3.4-11.8,6.4-16.7l0,0c3.1-5,7.5-9.2,12.7-12.1l3.1-1.7c2.2-1.2,4.6-2.2,7-3
	l10.6-3.2c1.6-0.5,3.3-0.9,5-1.1l3.8-0.6c3.3-0.5,6.7-0.5,10,0l2.9,0.4c1.8,0.3,3.5,0.6,5.2,1.2l11.8,3.6c3.1,0.9,6,2.3,8.7,4
	l3.7,2.3c4,2.5,7.4,5.8,10.1,9.7l0.5,0.7c2.3,3.4,4,7.1,5,11.1l0.5,1.8c0.7,2.9,1.1,5.8,1.1,8.7v11.1"/>
<path class="st0" d="M1024.1,504.5"/>
<path class="st0" d="M1023.1,783.1v16.3c0.4,5.7,3.4,11.8,6.4,16.7v0c3.1,5,7.5,9.2,12.7,12.1l3.1,1.7c2.2,1.2,4.6,2.2,7,3l10.6,3.2
	c1.6,0.5,3.3,0.9,5,1.1l3.8,0.6c3.3,0.5,6.7,0.5,10,0l2.9-0.4c1.8-0.3,3.5-0.6,5.2-1.2l11.8-3.6c3.1-0.9,6-2.3,8.7-4l3.7-2.3
	c4-2.5,7.4-5.8,10.1-9.7l0.5-0.7c2.3-3.4,4-7.1,5-11.1l0.5-1.8c0.7-2.9,1.1-5.8,1.1-8.7v-11.1"/>
<line class="st0" x1="68.1" y1="511.5" x2="68.1" y2="796.5"/>
<line class="st0" x1="176.1" y1="511.5" x2="176.1" y2="796.5"/>
<path class="st0" d="M68.1,519.2v-16.3c0.4-5.7,3.4-11.8,6.4-16.7h0c3.1-5,7.5-9.2,12.7-12.1l3.1-1.7c2.2-1.2,4.6-2.2,7-3l10.6-3.2
	c1.6-0.5,3.3-0.9,5-1.1l3.8-0.6c3.3-0.5,6.7-0.5,10,0l2.9,0.4c1.8,0.3,3.5,0.6,5.2,1.2l11.8,3.6c3.1,0.9,6,2.3,8.7,4l3.7,2.3
	c4,2.5,7.4,5.8,10.1,9.7l0.5,0.7c2.3,3.4,4,7.1,5,11.1l0.5,1.8c0.7,2.9,1.1,5.8,1.1,8.7v11.1"/>
<path class="st0" d="M69.1,505.4"/>
<path class="st0" d="M68.1,784v16.3c0.4,5.7,3.4,11.8,6.4,16.7h0c3.1,5,7.5,9.2,12.7,12.1l3.1,1.7c2.2,1.2,4.6,2.2,7,3l10.6,3.2
	c1.6,0.5,3.3,0.9,5,1.1l3.8,0.6c3.3,0.5,6.7,0.5,10,0l2.9-0.4c1.8-0.3,3.5-0.6,5.2-1.2l11.8-3.6c3.1-0.9,6-2.3,8.7-4l3.7-2.3
	c4-2.5,7.4-5.8,10.1-9.7l0.5-0.7c2.3-3.4,4-7.1,5-11.1l0.5-1.8c0.7-2.9,1.1-5.8,1.1-8.7V784"/>
<line class="st0" x1="176.1" y1="622" x2="1023.1" y2="622"/>
<line class="st0" x1="1024.1" y1="643" x2="176.1" y2="643"/>
<line class="st0" x1="173.8" y1="752" x2="1020.8" y2="752"/>
<line class="st0" x1="1021.8" y1="788" x2="173.8" y2="788"/>
<line class="st0" x1="178.1" y1="402.8" x2="176.1" y2="518.8"/>
<line class="st0" x1="1021.8" y1="402.8" x2="1022.8" y2="514.9"/>
<path class="st0" d="M178.1,415c-2-25.8,6.9-38.7,14.4-45c41.2-34.3,125,36.8,236,28c47.1-3.7,39.9-20.8,106.1-32.7
	c73.7-13.2,132.6-4.8,155.7-0.7c63.9,11.4,56.6,25.3,100.9,30.7c104.9,12.7,177.6-62.6,218.8-31.7c8.1,6.1,11.8,19.2,11.8,47.2"/>
</svg>
