<?xml version="1.0" encoding="utf-8"?>
<!-- Generator: Adobe Illustrator 22.0.0, SVG Export Plug-In . SVG Version: 6.00 Build 0)  -->
<svg version="1.1" id="Слой_1" xmlns="http://www.w3.org/2000/svg" xmlns:xlink="http://www.w3.org/1999/xlink" x="0px" y="0px"
	 viewBox="0 0 1920 1080" style="enable-background:new 0 0 1920 1080;" xml:space="preserve">
<style type="text/css">
	.st0{display:none;stroke:#FFFFFF;stroke-miterlimit:10;}
	.st1{fill:none;stroke:#FFFFFF;stroke-width:20;stroke-miterlimit:10;}
	.st2{stroke:#FFFFFF;stroke-width:20;stroke-miterlimit:10;}
	.st3{fill:none;stroke:#FFFFFF;stroke-width:30;stroke-miterlimit:10;}
	.st4{fill:none;stroke:#FFFFFF;stroke-width:15;stroke-miterlimit:10;}
</style>
<g id="Слой_1_1_">
	<rect x="0.5" y="-0.5" class="st0" width="1920" height="1081"/>
	<g id="Слой_2_1_">
		<line class="st1" x1="525" y1="250" x2="1209" y2="250"/>
	</g>
	<g id="Слой_3">
		<path class="st2" d="M536,973l-1-666.3c0-15.2,0-61.7,0-61.7"/>
	</g>
	<g id="Слой_4">
		<path class="st2" d="M1200,973l-1-658.1c0-15,0-60.9,0-60.9"/>
	</g>
	<g id="Слой_5">
		<line class="st1" x1="536" y1="963" x2="1209" y2="963"/>
		<line class="st3" x1="535" y1="387" x2="1208" y2="387"/>
	</g>
	<g id="Слой_6">
		<line class="st3" x1="536" y1="524" x2="1208" y2="524"/>
	</g>
	<g id="Слой_7">
		<line class="st3" x1="536" y1="661" x2="1206" y2="661"/>
	</g>
	<g id="Слой_8">
		<line class="st3" x1="527" y1="927" x2="1202" y2="927"/>
	</g>
	<g id="Слой_9">
		<line class="st3" x1="729" y1="377" x2="729" y2="250"/>
	</g>
	<g id="Слой_10">
		<line class="st3" x1="1020" y1="519" x2="1020" y2="392"/>
	</g>
	<g id="Слой_11">
		<line class="st3" x1="729" y1="657" x2="729" y2="530"/>
	</g>
	<g id="Слой_12">
		<line class="st3" x1="641" y1="921" x2="641" y2="671"/>
	</g>
	<g id="Слой_13">
		<line class="st3" x1="752" y1="916" x2="752" y2="661"/>
	</g>
	<g id="Слой_14">
		<line class="st3" x1="1090" y1="921" x2="1090" y2="671"/>
	</g>
	<g id="Слой_15">
		<line class="st4" x1="983" y1="913" x2="983" y2="673"/>
	</g>
	<g id="Слой_16">
		<line class="st1" x1="604.5" y1="804.5" x2="678" y2="804.5"/>
	</g>
	<g id="Слой_17">
		<line class="st1" x1="1054" y1="805" x2="1123" y2="805"/>
	</g>
</g>
<g id="Слой_2_2_">
</g>
</svg>
