<?xml version="1.0" encoding="utf-8"?>
<!-- Generator: Adobe Illustrator 22.1.0, SVG Export Plug-In . SVG Version: 6.00 Build 0)  -->
<svg version="1.1" id="Слой_1" xmlns="http://www.w3.org/2000/svg" xmlns:xlink="http://www.w3.org/1999/xlink" x="0px" y="0px"
	 viewBox="0 0 1200 1200" style="enable-background:new 0 0 1200 1200;" xml:space="preserve">
<style type="text/css">
	.st0{fill:none;stroke:#FFFFFF;stroke-width:8;stroke-miterlimit:10;}
</style>
<line class="st0" x1="145" y1="237" x2="1055" y2="237"/>
<line class="st0" x1="145" y1="333.5" x2="1055" y2="333.5"/>
<line class="st0" x1="148.5" y1="233" x2="148.5" y2="337"/>
<line class="st0" x1="1051.5" y1="233" x2="1051.5" y2="337"/>
<line class="st0" x1="177.5" y1="333" x2="177.5" y2="389"/>
<line class="st0" x1="1023.5" y1="333" x2="1023.5" y2="389"/>
<line class="st0" x1="174" y1="385.5" x2="1027" y2="385.5"/>
<line class="st0" x1="252" y1="384.5" x2="252" y2="971"/>
<line class="st0" x1="325.5" y1="386" x2="325.5" y2="971"/>
<line class="st0" x1="252" y1="966.9" x2="326" y2="966.9"/>
<line class="st0" x1="889" y1="383.5" x2="889" y2="970"/>
<line class="st0" x1="962.5" y1="385" x2="962.5" y2="970"/>
<line class="st0" x1="889" y1="965.8" x2="963" y2="965.8"/>
<line class="st0" x1="325.5" y1="621.7" x2="889" y2="621.7"/>
<line class="st0" x1="325.5" y1="665" x2="889" y2="665"/>
</svg>
