<?xml version="1.0" encoding="utf-8"?>
<!-- Generator: Adobe Illustrator 22.1.0, SVG Export Plug-In . SVG Version: 6.00 Build 0)  -->
<svg version="1.1" id="Слой_1" xmlns="http://www.w3.org/2000/svg" xmlns:xlink="http://www.w3.org/1999/xlink" x="0px" y="0px"
	 viewBox="0 0 1200 1200" style="enable-background:new 0 0 1200 1200;" xml:space="preserve">
<style type="text/css">
	.st0{fill:none;stroke:#FFFFFF;stroke-width:8;stroke-miterlimit:10;}
</style>
<line class="st0" x1="108" y1="270.5" x2="1092" y2="270.5"/>
<line class="st0" x1="105" y1="755" x2="1089" y2="755"/>
<line class="st0" x1="109" y1="759" x2="112" y2="270"/>
<line class="st0" x1="1085" y1="755" x2="1088" y2="269"/>
<line class="st0" x1="602.5" y1="756" x2="602.6" y2="270"/>
<line class="st0" x1="476.5" y1="515.5" x2="549.5" y2="515.5"/>
<line class="st0" x1="651" y1="515.5" x2="724" y2="515.5"/>
<line class="st0" x1="171" y1="755" x2="170.5" y2="883"/>
<line class="st0" x1="252" y1="755" x2="188" y2="881"/>
<path class="st0" d="M198,880"/>
<path class="st0" d="M161,880"/>
<line class="st0" x1="170.5" y1="879" x2="192" y2="879"/>
<line class="st0" x1="1032" y1="758" x2="1032.5" y2="886"/>
<line class="st0" x1="951" y1="758" x2="1011" y2="884"/>
<path class="st0" d="M1005,883"/>
<path class="st0" d="M1042,883"/>
<line class="st0" x1="1032.5" y1="882" x2="1007" y2="882"/>
</svg>
