<?xml version="1.0" encoding="utf-8"?>
<!-- Generator: Adobe Illustrator 22.1.0, SVG Export Plug-In . SVG Version: 6.00 Build 0)  -->
<svg version="1.1" id="Слой_1" xmlns="http://www.w3.org/2000/svg" xmlns:xlink="http://www.w3.org/1999/xlink" x="0px" y="0px"
	 viewBox="0 0 1200 1200" style="enable-background:new 0 0 1200 1200;" xml:space="preserve">
<style type="text/css">
	.st0{fill:none;stroke:#FFFFFF;stroke-width:8;stroke-miterlimit:10;}
</style>
<line class="st0" x1="1138.3" y1="887.9" x2="1138.3" y2="290.1"/>
<line class="st0" x1="1138.3" y1="884" x2="959" y2="884"/>
<line class="st0" x1="959" y1="888" x2="959" y2="290.2"/>
<line class="st0" x1="1138.3" y1="822" x2="959" y2="822"/>
<line class="st0" x1="1138.3" y1="762" x2="959" y2="762"/>
<line class="st0" x1="1138.3" y1="702.5" x2="959" y2="702.5"/>
<line class="st0" x1="1138.3" y1="629.3" x2="959" y2="629.3"/>
<line class="st0" x1="1138.3" y1="541" x2="959" y2="541"/>
<line class="st0" x1="1138.3" y1="464" x2="959" y2="464"/>
<line class="st0" x1="1138.3" y1="391.5" x2="959" y2="391.5"/>
<path class="st0" d="M1042,666.3"/>
<line class="st0" x1="1060" y1="666.3" x2="1037.1" y2="666.3"/>
<line class="st0" x1="1060" y1="726.4" x2="1037.2" y2="726.4"/>
<line class="st0" x1="1060" y1="798" x2="1037" y2="798"/>
<line class="st0" x1="1060" y1="857.7" x2="1037.1" y2="857.7"/>
<line class="st0" x1="1138.5" y1="294.2" x2="959.1" y2="294.2"/>
<line class="st0" x1="1060" y1="390.8" x2="1037.1" y2="390.8"/>
<line class="st0" x1="1060" y1="428.9" x2="1037.2" y2="428.9"/>
<line class="st0" x1="1060" y1="502.5" x2="1037" y2="502.5"/>
<line class="st0" x1="1060" y1="582.2" x2="1037.1" y2="582.2"/>
<line class="st0" x1="1059.9" y1="341.5" x2="1037.1" y2="341.5"/>
<line class="st0" x1="944.5" y1="294.2" x2="689.7" y2="294.2"/>
<line class="st0" x1="693.7" y1="294.2" x2="693.7" y2="511.8"/>
<line class="st0" x1="940.5" y1="296.2" x2="940.5" y2="513.8"/>
<line class="st0" x1="821.3" y1="294.2" x2="821.3" y2="511.8"/>
<line class="st0" x1="773.3" y1="403" x2="803" y2="403"/>
<line class="st0" x1="848" y1="403" x2="877.8" y2="403"/>
<line class="st0" x1="959" y1="511.8" x2="96.6" y2="511.8"/>
<line class="st0" x1="959" y1="809.3" x2="343.3" y2="809.3"/>
<line class="st0" x1="959" y1="774.7" x2="343.3" y2="774.7"/>
<line class="st0" x1="959" y1="725.6" x2="343.3" y2="725.6"/>
<line class="st0" x1="343.3" y1="511.8" x2="343.3" y2="887.9"/>
<line class="st0" x1="343.3" y1="883.9" x2="95.1" y2="883.7"/>
<line class="st0" x1="96.6" y1="420.5" x2="96.6" y2="887.8"/>
<line class="st0" x1="217.3" y1="511.8" x2="217.3" y2="883.7"/>
<path class="st0" d="M510.5,660c16.2-0.3,29.4,12,30.5,26.5c1.2,16.1-12.8,31.3-30.9,30.9"/>
<path class="st0" d="M383.1,717.4c-18,0.5-32.1-14.8-30.9-30.9c1.1-14.5,14.3-26.8,30.5-26.5"/>
<line class="st0" x1="379.6" y1="660.1" x2="513.6" y2="660.1"/>
<line class="st0" x1="513.6" y1="717.4" x2="379.6" y2="717.4"/>
<line class="st0" x1="199" y1="690" x2="164.3" y2="690"/>
<line class="st0" x1="269.5" y1="690" x2="234.8" y2="690"/>
<line class="st0" x1="97.6" y1="424.5" x2="693.7" y2="424.5"/>
<path class="st0" d="M281.2,358.6c16.2-0.3,29.4,12,30.5,26.5c1.2,16.1-12.8,31.3-30.9,30.9"/>
<path class="st0" d="M153.8,416c-18,0.5-32.1-14.8-30.9-30.9c1.1-14.5,14.3-26.8,30.5-26.5"/>
<line class="st0" x1="150.3" y1="358.7" x2="284.3" y2="358.7"/>
<line class="st0" x1="284.3" y1="416" x2="150.3" y2="416"/>
<line class="st0" x1="96.6" y1="325.8" x2="96.6" y2="426.3"/>
<line class="st0" x1="379.6" y1="646.5" x2="510.1" y2="646.5"/>
<line class="st0" x1="150.3" y1="344" x2="284.3" y2="344"/>
<line class="st0" x1="96.6" y1="473" x2="693.7" y2="473"/>
<line class="st0" x1="96.6" y1="490.3" x2="693.7" y2="490.3"/>
<line class="st0" x1="48" y1="433" x2="48" y2="828"/>
<line class="st0" x1="48" y1="437" x2="96.6" y2="437"/>
<line class="st0" x1="48" y1="523" x2="96.6" y2="523"/>
<line class="st0" x1="48" y1="608" x2="96.6" y2="608"/>
<line class="st0" x1="48" y1="691" x2="96.6" y2="691"/>
<line class="st0" x1="48" y1="775" x2="96.6" y2="775"/>
<line class="st0" x1="150.3" y1="385" x2="284.3" y2="385"/>
<line class="st0" x1="379.6" y1="688.7" x2="510.1" y2="688.7"/>
</svg>
