<?xml version="1.0" encoding="utf-8"?>
<!-- Generator: Adobe Illustrator 22.0.0, SVG Export Plug-In . SVG Version: 6.00 Build 0)  -->
<svg version="1.1" id="Слой_1" xmlns="http://www.w3.org/2000/svg" xmlns:xlink="http://www.w3.org/1999/xlink" x="0px" y="0px"
	 viewBox="0 0 2000 880" style="enable-background:new 0 0 2000 880;" xml:space="preserve">
<style type="text/css">
	.st0{fill:none;stroke:#FFFFFF;stroke-width:7;stroke-miterlimit:10;}
</style>
<g id="Слой_1_1_">
	<path class="st0" d="M-78.5-459.5"/>
	<path class="st0" d="M-78.5,1339.5"/>
	<polyline class="st0" points="281.5,109.5 47.5,109.5 48.5,514.5 154.5,514.5 	"/>
	<polyline class="st0" points="413.5,514.5 523.5,514.5 521.5,109.5 390.5,109.5 	"/>
	<polyline class="st0" points="141.5,454.5 171.5,586.5 361.5,586.5 396.5,449.5 	"/>
	<rect x="200.5" y="491.5" class="st0" width="28" height="72"/>
	<rect x="253.5" y="491.5" class="st0" width="28" height="72"/>
	<rect x="306.5" y="491.5" class="st0" width="28" height="72"/>
	<polyline class="st0" points="364.5,586.5 396.5,563.5 433.5,452.5 	"/>
	<line class="st0" x1="145.3" y1="471" x2="390.5" y2="471"/>
	<path class="st0" d="M89.5,449.5"/>
	<rect x="89.5" y="389.5" class="st0" width="362" height="60"/>
	<polyline class="st0" points="451.5,392.3 489.5,348.5 390.5,348.5 	"/>
	<polyline class="st0" points="451.5,449.5 489.5,400.5 489.5,348.5 	"/>
	<polyline class="st0" points="367.5,68.5 367.5,389.5 390.5,389.5 390.5,383.5 387.5,84.5 364.5,68.5 323.5,68.5 323.5,237.5 	"/>
	<polyline class="st0" points="337.5,386.5 337.5,295.5 337.5,291.5 	"/>
	<line class="st0" x1="345.5" y1="274.5" x2="345.5" y2="245.5"/>
	<line class="st0" x1="350" y1="68.5" x2="349.5" y2="96.5"/>
	<rect x="189.5" y="165.5" class="st0" width="81" height="224"/>
	<polyline class="st0" points="89.5,386.5 147.5,348.5 186.5,348.5 	"/>
	<line class="st0" x1="145.5" y1="348.5" x2="145.5" y2="386.5"/>
	<line class="st0" x1="244.5" y1="386.5" x2="244.5" y2="348.5"/>
	<line class="st0" x1="212.5" y1="308.5" x2="212.5" y2="165.5"/>
	<line class="st0" x1="236.5" y1="198.5" x2="236.5" y2="165.5"/>
	<line class="st0" x1="247.5" y1="317.5" x2="247.5" y2="295.5"/>
	<polyline class="st0" points="270.5,170.3 297.5,195.5 297.5,389.5 	"/>
	<polyline class="st0" points="284,182.9 283.5,68.5 323.5,68.5 	"/>
	<line class="st0" x1="4.5" y1="220.5" x2="89.5" y2="220.5"/>
</g>
<line class="st0" x1="343" y1="220.5" x2="1995.5" y2="220.5"/>
</svg>
