<?xml version="1.0" encoding="utf-8"?>
<!-- Generator: Adobe Illustrator 22.0.0, SVG Export Plug-In . SVG Version: 6.00 Build 0)  -->
<svg version="1.1" xmlns="http://www.w3.org/2000/svg" xmlns:xlink="http://www.w3.org/1999/xlink" x="0px" y="0px"
	 viewBox="0 0 2200 550" style="enable-background:new 0 0 2200 550;" xml:space="preserve">
<style type="text/css">
	.st0{display:none;}
	.st1{display:inline;fill:#1A1A1A;}
	.st2{fill:none;stroke:#FBB03B;stroke-width:7;stroke-miterlimit:10;}
</style>
<g id="Слой_2" class="st0">
	<rect x="-0.5" y="-0.5" class="st1" width="2200" height="550"/>
</g>
<g id="Слой_1">
	<path class="st2" d="M102.5-506.5"/>
	<path class="st2" d="M102.5,1292.5"/>
	<polyline class="st2" points="462.5,62.5 228.5,62.5 229.5,467.5 335.5,467.5 	"/>
	<polyline class="st2" points="594.5,467.5 704.5,467.5 702.5,62.5 571.5,62.5 	"/>
	<polyline class="st2" points="322.5,407.5 352.5,539.5 542.5,539.5 577.5,402.5 	"/>
	<rect x="381.5" y="444.5" class="st2" width="28" height="72"/>
	<rect x="434.5" y="444.5" class="st2" width="28" height="72"/>
	<rect x="487.5" y="444.5" class="st2" width="28" height="72"/>
	<polyline class="st2" points="545.5,539.5 577.5,516.5 614.5,405.5 	"/>
	<line class="st2" x1="326.3" y1="424" x2="571.5" y2="424"/>
	<path class="st2" d="M270.5,402.5"/>
	<rect x="270.5" y="342.5" class="st2" width="362" height="60"/>
	<polyline class="st2" points="632.5,345.3 670.5,301.5 571.5,301.5 	"/>
	<polyline class="st2" points="632.5,402.5 670.5,353.5 670.5,301.5 	"/>
	<polyline class="st2" points="548.5,21.5 548.5,342.5 571.5,342.5 571.5,336.5 568.5,37.5 545.5,21.5 504.5,21.5 504.5,190.5 	"/>
	<polyline class="st2" points="518.5,339.5 518.5,248.5 518.5,244.5 	"/>
	<line class="st2" x1="526.5" y1="227.5" x2="526.5" y2="198.5"/>
	<line class="st2" x1="531" y1="21.5" x2="530.5" y2="49.5"/>
	<rect x="370.5" y="118.5" class="st2" width="81" height="224"/>
	<polyline class="st2" points="270.5,339.5 328.5,301.5 367.5,301.5 	"/>
	<line class="st2" x1="326.5" y1="301.5" x2="326.5" y2="339.5"/>
	<line class="st2" x1="425.5" y1="339.5" x2="425.5" y2="301.5"/>
	<line class="st2" x1="393.5" y1="261.5" x2="393.5" y2="118.5"/>
	<line class="st2" x1="417.5" y1="151.5" x2="417.5" y2="118.5"/>
	<line class="st2" x1="428.5" y1="270.5" x2="428.5" y2="248.5"/>
	<polyline class="st2" points="451.5,123.3 478.5,148.5 478.5,342.5 	"/>
	<polyline class="st2" points="465,135.9 464.5,21.5 504.5,21.5 	"/>
	<line class="st2" x1="185.5" y1="173.5" x2="270.5" y2="173.5"/>
	<line class="st2" x1="666.5" y1="173.5" x2="2097.5" y2="173.5"/>
</g>
</svg>
