<?xml version="1.0" encoding="utf-8"?>
<!-- Generator: Adobe Illustrator 22.1.0, SVG Export Plug-In . SVG Version: 6.00 Build 0)  -->
<svg version="1.1" id="Слой_1" xmlns="http://www.w3.org/2000/svg" xmlns:xlink="http://www.w3.org/1999/xlink" x="0px" y="0px"
	 viewBox="0 0 1007.1 758.3" style="enable-background:new 0 0 1007.1 758.3;" xml:space="preserve">
<style type="text/css">
	.st0{fill:none;stroke:#FFFFFF;stroke-width:4;stroke-miterlimit:10;}
	.st1{stroke:#FFFFFF;stroke-width:10;stroke-miterlimit:10;}
	.st2{fill:none;stroke:#FFFFFF;stroke-width:5;stroke-miterlimit:10;}
	.st3{fill:none;stroke:#FFFFFF;stroke-miterlimit:10;}
</style>
<g id="Слой_1_1_">
	<title>Безымянный-2</title>
	<g id="Слой_32">
		<path class="st0" d="M8.2,429l223.3-21.6c182.8-17.1,367.4-17.1,550.3,0L1002,429l-75.1-16.8c0,0-86.9-15.2-104.7-17.6
			S700.7,381,698.7,381s-100.8-7.2-117.6-7.2s-99.8-1.6-145.2,0c-79.3,2.8-189,6.2-324,32C67.4,414.3,31.4,423,8.2,429z"/>
		<path class="st0" d="M194.4,220.1"/>
		<g id="XMLID_1_">
			<g>
				<path class="st0" d="M170.2,434.6l159.7-16.4c130.3-12.9,263.2-12.9,393.5,0L881,434.6l-53.7-12.7c0,0-62.2-11.5-74.9-13.3
					c-42.8-6.1-81.5-9.8-88.3-10.3c-5.6-0.4-9.4-0.6-16-0.9c-34.1-1.8-60.3-2.1-84.3-2.3c-46.8-0.4-70.2-0.6-87.9-0.3
					c-45.4,0.7-131.4,2.5-231.5,22.3C212.6,423.3,187.2,429.9,170.2,434.6z"/>
			</g>
		</g>
	</g>
	<g id="Слой_34">
		<path class="st0" d="M306.6,443.5L412.3,430c90.9-11.3,169.6-11.3,260.5,0l104.3,13.5L741.6,433c0,0-41.2-9.5-49.6-11
			s-57.5-8.5-58.5-8.5s-47.7-4.5-55.7-4.5c-8.2,0-47-1-68.8,0c-37.5,1.7-89.5,3.9-153.4,20C338.7,433.3,322.3,438.2,306.6,443.5z"/>
	</g>
	<g id="Слой_35">
		<rect x="271.1" y="262.9" class="st0" width="489" height="9"/>
	</g>
	<g id="Слой_36">
		<rect x="248.1" y="299.9" class="st0" width="535" height="11"/>
		<path class="st0" d="M278.1,115.9c10.3,11.1,27.7,33,36.9,65.4c6.4,22.4,6.6,41.9,5.7,55.1"/>
	</g>
	<g id="Слой_38">
		<path class="st0" d="M325.1,118.9c-0.5-0.4-0.7-0.6-0.8-0.6c-0.7,0.6,24.1,27.3,35.8,55.6c5.6,13.5,10.9,33.8,7.9,62.6"/>
	</g>
	<g id="Слой_37">
		<path class="st0" d="M367.1,109.9c16.1,15.1,28.2,34,35,55c6.5,19.9,6.1,38.4,6,47c-0.1,10-1.1,18.5-2.1,24.6"/>
	</g>
	<g id="Слой_33">
		<path class="st0" d="M414.1,90.9c16.1,15.1,28.2,34,35,55c5.2,16.1,5.4,31,6,47c0.6,17.8-0.5,32.8-1.8,43.6"/>
	</g>
	<g id="Слой_39">
		<path class="st0" d="M466.1,56.9c10.8,24.6,23.2,60.6,27.2,105.4c2.6,28.7,1.1,53.9-1.7,74.2"/>
	</g>
	<g id="Слой_40">
		<path class="st0" d="M511.1,33.9c7.9,67.5,15.7,135,23.6,202.5"/>
	</g>
	<g id="Слой_41">
		<path class="st0" d="M568.1,13.9c2.3,73.6,4.6,147.2,6.9,220.7"/>
	</g>
	<g id="Слой_42">
		<path class="st0" d="M633.1,1.9c-13.2,26.2-31.7,71.3-35,130c-2.5,43.5,4.2,79.6,10.9,104.4"/>
	</g>
	<g id="Слой_43">
		<path class="st0" d="M680.1,4.9C667.9,31,652.7,71,647,122c-5.2,46.6-0.6,85.7,4.7,112.7"/>
	</g>
	<g id="Слой_44">
		<path class="st0" d="M731.1,21.9c-14.9,19.7-39.3,57.3-50.1,110.7c-8.9,43.8-5.1,80.7-1,103.4"/>
	</g>
	<g id="Слой_45">
		<path class="st0" d="M774.1,49.9c-14,11.4-52.8,46.1-66,105c-7.6,33.8-3.8,62.5-0.1,79.7"/>
	</g>
	<g id="Слой_46">
		<path class="st0" d="M806.1,80.9c-12.7,7.7-43.3,28.6-63,69C725,187.1,725.8,221,727,236"/>
	</g>
	<g id="Слой_6">
		<path class="st0" d="M189.6,388.9c0.1-11.8,0.2-29.8,0.9-51.9c1.4-46.3,3.3-59,0-79.7c-2.3-14.1-7.3-34.2-20-57.7"/>
	</g>
	<g id="Слой_7">
		<path class="st0" d="M840.1,396.9c-3.8-37.2-4.6-83.8,4-136.4c3.7-22.5,8.6-43.1,14-61.6"/>
	</g>
	<g id="Слой_8">
		<path class="st0" d="M213.1,386.9c4.8-15.1,8.8-30.5,12-46c8.4-40.7,8.9-71.5,9-78c0.2-15.6,0.3-34.1-4-58
			c-4.6-25.6-7.9-43.7-21-62c-15.1-21-36-32.2-52.4-38.1c-2.2-1.1-26.5-12.6-48.6,0.1c-22.4,12.9-31.1,44-19,67
			c12.9,24.7,47.2,35,75,19c8.2,10.2,14.6,21.7,19,34c1,3.7,2.3,9.1,3.8,15.8c3,13.6,4.9,22.6,5.3,34c0.2,6.6-0.3,6.6-0.9,21
			c-0.4,11.6-0.4,21-0.4,27.3c-0.6,23-1.2,46-1.9,68.9L213.1,386.9z"/>
	</g>
	<g id="Слой_9">
		<path class="st0" d="M811.1,389.9c-2.1-17-4.3-30.6-5.9-39.7c-1.9-11.1-7.1-39.4-9.1-58.3c-0.7-6.8-0.9-11.7-1-14
			c-0.3-7.2,0-11,0-17c0-10.5-0.7-17.1-1-22c-1.3-21,3.4-43.3,4-46c2.8-12.8,9-41,33-63c22.3-20.3,48.3-24.8,60-26
			c7.4,0,14.7,2.1,21,6c10.6,6.6,14.8,16.5,17,22c1.5,3.6,12.6,32.3-4,54c-13.9,18.2-44.6,22.7-67,13c-3.1,7.8-7.3,19.6-10.3,34.4
			c-1.7,8.3-2.3,13.8-3.7,27.2c-5.4,50.1-5.4,45.5-5.9,54.4c-0.7,12-1.6,27.8-0.4,48.7c0.7,13.5,2.1,24.8,3.3,33.3L811.1,389.9z"/>
		<path class="st1" d="M651.1,375.9"/>
		<path class="st0" d="M141.1,197.9"/>
	</g>
	<g id="Слой_10">
		<path class="st1" d="M126.1,102.9"/>
	</g>
	<g id="Слой_12">
		<path class="st0" d="M234.1,262.9c5.3-7.9,14.5-18.8,29-24c6.7-2.4,13.9-3.4,21-3c22.7,1,207.5,0.7,466,0
			c16.7,2.4,31.5,12.4,40,27c3.5,29.8,6.9,59.5,10.4,89.3c-190.5,0.2-380.9,0.5-571.4,0.7L234.1,262.9z"/>
		<path class="st1" d="M927.1,291.9"/>
	</g>
	<g id="Слой_18">
		<path class="st0" d="M248.1,169.9"/>
	</g>
	<g id="Слой_22">
		<path class="st2" d="M215,598.1c18.5,6.6,35.2,1.2,39.5-8.5c2.6-5.8,1.9-15.5-4-21c-3.8-3.5-8.4-4.1-11.5-4.5
			c-10.7-1.2-29.8,2-37,18c-3.3,7.2-5.2,19.3,1,27c10.3,12.8,40.5,11,59-3c24.3-18.4,17.6-49,46-72c3.6-2.9,13.8-11.2,19-8
			c3.2,1.9,3.6,7.4,3,11c-1.4,8.8-10.1,13.9-16.5,17.5c-8.9,5-25.8,14.6-44,8c-7.7-2.8-22.2-10.8-21.5-21.5c0.7-10,14.2-16.4,23-18
			c14.8-2.7,26.6,6.4,30,9c4.9,3.8,9,8.6,12,14"/>
	</g>
	<g id="Слой_23">
		<ellipse transform="matrix(0.5 -0.866 0.866 0.5 -366.4773 557.9465)" class="st0" cx="300" cy="596.4" rx="19.6" ry="11.8"/>
	</g>
	<g id="Слой_24">
		<path class="st0" d="M306.1,607.9c5.9-5.8,12.2-11.2,19-16c7.2-5.2,21.1-14.2,23-12c1.1,1.3-3,5.6-11,19c-5.8,9.7-8.1,14.9-8,15
			s5.6-14.5,19-26c7.5-6.4,18.5-12.9,22-10c2.6,2.2,0.3,9.2,0,10c-1.8,5.4-4.8,6.3-7,11c-2.5,5.5-2.5,13.4,0,15c3,1.9,12.1-3,40-35"
			/>
	</g>
	<g id="Слой_25">
		<path class="st0" d="M403.1,578.9c-15.9,24.9-17.1,32.1-15,34c2.5,2.3,11-2.8,13-4c4.6-2.8,7.4-5.8,16-16c1.8-2.1,11.8-14.1,12-14
			c-4.7,5.3-8.4,11.4-11,18c-1.9,5-4.3,13.7-2,15c0.6,0.4,2.1,0.4,12-9c0,0,3.5-4.5-2,1c-5,5-9,8.5-6,6"/>
	</g>
	<g id="Слой_26">
		<path class="st0" d="M516.1,579.9"/>
		<path class="st0" d="M420.1,609.9c4.2-4.1,9.5-11,18-17c7.2-5.2,21.1-14.2,23-12c1.1,1.3-3,5.6-11,19c-5.8,9.7-8.1,14.9-8,15
			s5.6-14.5,19-26c7.5-6.4,18.5-12.9,22-10c2.6,2.2,0.3,9.2,0,10c-1.8,5.4-4.8,5.7-7,11s-2.3,11.9,0,13c1.9,0.9,5.3-2.4,8-5
			c3.5-3.6,6.5-7.6,9-12c1.8-2.8,3.6-5.7,5.5-8.5"/>
	</g>
	<g id="Слой_28">
		<path class="st0" d="M208,101.5c40.5,13.7,96.8,23.5,155.6,8.9c68.6-17,81.3-53.4,168-84c42.3-14.9,98.6-34.8,163-18
			c72.8,19,115.1,74.1,130.6,96.8"/>
	</g>
	<g id="Слой_29">
		<path class="st0" d="M875.3,130.3c5.7-2.2,13.1-5.1,20.5-2.9c9.5,2.8,15.5,13.1,17,21.7c2.9,17.3-11.4,35.4-22.8,35.7
			c-7,0.2-9.6-4.6-19.9-4.7c-6.7,0.4-13.1,2.4-18.9,5.8c-20.9,12.2-27,53-28,60c-8.4,60.4,0.1,102.8-1,103
			c-1.7,0.3-23.5-109.5,1-163c15-32.8,40.4-49.2,40.4-49.2C867.3,134.3,871.2,132.2,875.3,130.3z"/>
		<circle class="st0" cx="889.6" cy="158.4" r="5.5"/>
		<circle class="st0" cx="141.6" cy="146.4" r="6.5"/>
	</g>
	<g id="Слой_31">
		<path class="st0" d="M152.4,122.3c-5.7-2.2-13.1-5.1-20.5-2.9c-9.5,2.8-15.5,13.1-17,21.7c-2.9,17.3,11.4,35.4,22.8,35.7
			c7,0.2,9.6-4.6,19.9-4.7c6.7,0.4,13.1,2.4,18.9,5.8c20.9,12.2,27,53,28,60c8.4,60.4-0.1,102.8,1,103c1.7,0.3,23.5-109.5-1-163
			c-15-32.8-40.4-49.2-40.4-49.2C160.4,126.3,156.4,124.2,152.4,122.3z"/>
	</g>
	<path class="st3" d="M785.2,144.7c-1.1-0.9-12.6,8.2-18.6,22.6c0,0-6.4,15.6-2,32.9c0.3,1.3,1.3,5.2,2.1,5.1
		c1.3-0.1-0.1-11.5,1.2-21.8C770.6,159.9,786.5,145.7,785.2,144.7z"/>
	<path class="st3" d="M784.5,184c5.9-24.1,18.7-37.8,17.3-38.8c-1.2-0.9-12.5,8.2-18.6,22.6c-8,18.9-3.3,38.4-2,38.5
		C782.1,206.3,781.2,197.6,784.5,184z"/>
	<path class="st3" d="M243.2,180c-5.9-24.1-18.7-37.8-17.3-38.8c1.2-0.9,12.5,8.2,18.6,22.6c8,18.9,3.3,38.4,2,38.5
		C245.6,202.3,246.5,193.6,243.2,180z"/>
	<path class="st3" d="M262.2,173.5c-4.5-18.3-14.2-28.8-13.2-29.6c0.9-0.7,9.5,6.2,14.2,17.2c6.1,14.4,2.5,29.3,1.5,29.3
		C264.1,190.4,264.8,183.8,262.2,173.5z"/>
	<path class="st0" d="M579,399.5"/>
	<path class="st0" d="M746.3,235.9c-3.7-54.8,23.3-104.8,67.3-125.9c40.7-19.6,80.8-7.1,90.9-3.7"/>
	<path class="st0" d="M291.3,234.7c2.2-53.2-23.9-102.2-67.3-125.9c-44.4-24.2-89.2-12.3-99.4-9.3"/>
	<path class="st0" d="M948.3,340"/>
</g>
<g id="Слой_2_1_">
	<path class="st0" d="M513,596c12.3,5.8,25.7,4,33.3-4.1c4.4-4.7,8.4-13,5.7-20.9c-4.5-13-23.2-13.5-24-13.5
		c-11.2-0.1-25.4,6.3-29,19.5c-3.8,13.9,6.2,28.2,17,32.5c10,4,22-0.2,50-20.5c45.1-32.7,71.1-63.5,73-62
		c1.2,0.9-7.3,15.2-49.2,73.1c-5.5,8.1-7.6,12.3-6.8,12.9c4,3.4,88.2-84.7,88-85c-0.1-0.1-29.5,25.9-42,64c-1.7,5.3-6,18.5-2,21
		c4.6,2.9,26.3-8.6,29.3-11.7"/>
</g>
<g id="Слой_3">
	<path class="st0" d="M639.5,610.6c8.6-6.1,16.2-9.3,21.5-11.1c3.7-1.2,9-2.7,16-6.5c5.7-3.1,10.2-5.6,10-8.5
		c-0.2-3.2-6.2-6.2-11.5-6c-11.8,0.4-17.5,16.6-17.8,17.6c-1,3-2.9,8.6-0.2,11.9c2.5,3.1,7.7,2.6,10,2.5
		c20.9-1.3,35.7-24.9,39.5-31.5"/>
</g>
<g id="Слой_4">
	<path class="st0" d="M738.5,537c-11.6,18.1-21.5,30.5-29,39c-3.9,4.4-12.1,13.3-12,25c0,5.7,2,7.6,2.5,8c5.4,4.7,21.3,0.7,25-10
		c2.1-6.2-0.2-13.5-5.5-19"/>
</g>
<g id="Слой_5">
	<path class="st0" d="M720.5,605.6c10.5-3.3,18.5-5.8,23.7-7.4c3-0.9,8.9-2.7,16-6.5c5.7-3.1,10.2-5.6,10-8.5
		c-0.2-3.2-6.2-6.2-11.5-6c-11.8,0.4-17.5,16.6-17.8,17.6c-1,3-2.9,8.6-0.2,11.9c0.8,0.9,3.1,3.1,10,2.5c22.5-2,42.9-28.6,42.9-28.6
		l0,0"/>
</g>
<g id="Слой_6_1_">
	<path class="st0" d="M823.5,537.5c-38.5,53.6-46.3,69.1-44,71c1.3,1.1,6.8-1.9,12.5-5.1c4.7-2.6,8.4-5.5,11-7.9"/>
</g>
</svg>
