<?xml version="1.0" encoding="utf-8"?>
<!-- Generator: Adobe Illustrator 22.1.0, SVG Export Plug-In . SVG Version: 6.00 Build 0)  -->
<svg version="1.1" id="Layer_1" xmlns="http://www.w3.org/2000/svg" xmlns:xlink="http://www.w3.org/1999/xlink" x="0px" y="0px"
	 viewBox="0 0 512 512" style="enable-background:new 0 0 512 512;" xml:space="preserve">
<style type="text/css">
	.st0{fill:none;stroke:#FFFFFF;stroke-width:8;stroke-miterlimit:10;}
	.st1{fill:none;stroke:#FFFFFF;stroke-width:2;stroke-miterlimit:10;}
</style>
<line class="st0" x1="16.6" y1="422.6" x2="16.6" y2="317"/>
<line class="st0" x1="13.6" y1="322" x2="73.7" y2="287"/>
<line class="st0" x1="62" y1="357.8" x2="62" y2="422.6"/>
<line class="st0" x1="493" y1="422.6" x2="493" y2="317"/>
<line class="st0" x1="496" y1="322" x2="435.2" y2="285"/>
<line class="st0" x1="454.6" y1="366" x2="454.6" y2="422.6"/>
<path class="st0" d="M370.6,230.4c1.2,20.4,10.1,52.9,22.3,57.9c7.1,2.9,15.8,3,15.8,3c7.5,0,13.6-1.8,16.4-3
	c12-5.1,20.1-38,20.3-58.5"/>
<path class="st0" d="M370.6,232.1c1.2-20.4,10.1-37.1,22.3-42.1c7.1-2.9,15.8-3,15.8-3c7.5,0,13.6,1.8,16.4,3
	c12,5.1,20.1,22.2,20.3,42.6"/>
<line class="st0" x1="164.4" y1="303.4" x2="130" y2="285"/>
<line class="st0" x1="350.6" y1="300.2" x2="383.3" y2="283"/>
<line class="st0" x1="162.2" y1="422.6" x2="162.2" y2="291"/>
<line class="st0" x1="160.2" y1="295.5" x2="228.6" y2="253"/>
<line class="st0" x1="350.6" y1="423.6" x2="350.6" y2="292"/>
<line class="st0" x1="352.3" y1="296.3" x2="283.2" y2="254"/>
<line class="st0" x1="206" y1="340.3" x2="206" y2="422.6"/>
<line class="st0" x1="307.4" y1="340.3" x2="307.4" y2="422.6"/>
<path class="st0" d="M211,187c-6.4-0.1-11.2-23.1-7.3-36c4.5-15,25.2-24,42-24c18.9,0,28.2,11.8,44.7,6c8-2.8,10.9-7.4,14-6
	c9.2,4.3,8.9,45.4-7,52.9c-5.1-28.2-41.4-53.2-68.8-22.2C221.4,166,217.6,187.1,211,187z"/>
<path class="st0" d="M213.3,193.9c1.4,23.2,11.5,60.2,25.4,65.9c8.1,3.3,18,3.4,18,3.4c8.5,0,15.5-2.1,18.6-3.4
	c13.7-5.8,22.9-43.2,23.1-66.5"/>
<path class="st0" d="M213.3,195.9c1.4-23.2,11.5-42.2,25.4-47.9c8.1-3.3,18-3.4,18-3.4c8.5,0,15.5,2.1,18.6,3.4
	c13.7,5.8,22.9,25.2,23.1,48.5"/>
<path class="st0" d="M61.8,232.1c1.3,21.2,10.5,55,23.2,60.2c7.4,3,16.4,3.1,16.4,3.1c7.8,0,14.2-1.9,17-3.1
	c12.5-5.3,20.9-39.4,21.1-60.7"/>
<path class="st0" d="M61.8,233.8c1.3-21.2,10.5-38.5,23.2-43.7c7.4-3,16.4-3.1,16.4-3.1c7.8,0,14.2,1.9,17,3.1
	c12.5,5.3,20.9,23,21.1,44.3"/>
<path class="st1" d="M235,198.7c-0.2-3.4,2.6-6,5.4-5.8c2.6,0.2,4.8,3,4.4,6.1"/>
<path class="st1" d="M269,198.7c-0.2-3.4,2.6-6,5.4-5.8c2.6,0.2,4.8,3,4.4,6.1"/>
<path class="st1" d="M387.1,232c-0.2-3.4,2.6-6,5.4-5.8c2.6,0.2,4.8,3,4.4,6.1"/>
<path class="st1" d="M421.1,232c-0.2-3.4,2.6-6,5.4-5.8c2.6,0.2,4.8,3,4.4,6.1"/>
<path class="st1" d="M78.2,233.4c-0.2-3.4,2.6-6,5.4-5.8c2.6,0.2,4.8,3,4.4,6.1"/>
<path class="st1" d="M112.2,233.4c-0.2-3.4,2.6-6,5.4-5.8c2.6,0.2,4.8,3,4.4,6.1"/>
</svg>
