<?xml version="1.0" encoding="utf-8"?>
<!-- Generator: Adobe Illustrator 22.0.0, SVG Export Plug-In . SVG Version: 6.00 Build 0)  -->
<svg version="1.1" id="Слой_1" xmlns="http://www.w3.org/2000/svg" xmlns:xlink="http://www.w3.org/1999/xlink" x="0px" y="0px"
	 viewBox="0 0 1920 1080" style="enable-background:new 0 0 1920 1080;" xml:space="preserve">
<style type="text/css">
	.st0{display:none;}
	.st1{display:inline;}
	.st2{fill:none;stroke:#FFFFFF;stroke-width:31;stroke-miterlimit:10;}
	.st3{fill:none;stroke:#FFFFFF;stroke-width:15;stroke-miterlimit:10;}
</style>
<g class="st0">
	<rect x="0.5" y="4.5" class="st1" width="1919" height="1075"/>
	<path class="st1" d="M1919,5v1074H1V5H1919 M1920,4H0v1076h1920V4L1920,4z"/>
</g>
<g id="Слой_2_1_">
	<path class="st2" d="M793,463c1,53,2,106,3,159c2.9,152.7,1.2,161.6,9,186c26.4,82.8,98.4,162.5,194.5,191.5
		c21,6.3,71.6,20.9,132.5,6.5c117.6-27.9,189.5-144.1,203-227c3.9-24.2,5.8-64.1,5-100c-0.8-34.3,0-58-1.5-75.5"/>
</g>
<g id="Слой_4">
	<path class="st2" d="M1215.5,259.5c-22.5-14.2-116.9-70.5-242-49c-38.1,6.5-148.5,22.1-195,107c-9.9,18-14.6,34.9-17,47"/>
</g>
<g id="Слой_3">
	<path class="st2" d="M1211.5,256.5c2.8,14.9,22.3,127.1-43,183c-24.9,21.3-54.5,27.8-96,37c-29.4,6.5-77.9,17.3-135,5
		c-64.7-14-71.7-42.7-120-41c-52.4,1.9-77.4,36.8-90,26c-16.5-14.2,3.1-94.5,53-116c53.6-23.1,102.6,38.8,172,16
		c29-9.5,48.5-29.6,60-44"/>
</g>
<g id="Слой_5">
	<path class="st2" d="M1215.5,289.5c0.2,7.7,0.5,19.2,1,33c3.4,90.8,5,136.2,15,163c8,21.4,31.2,66.5,112,102"/>
</g>
<g id="Слой_6">
	<path class="st2" d="M1204.5,264.5c8.4-3.4,53.1-20.4,88,2c29.3,18.8,35.8,55.1,42,89c6.3,34.7,3.8,61.8,3,72
		c-3.3,40.2-5.2,99.5,2,181"/>
</g>
<g id="Слой_7">
	<path class="st2" d="M1339.5,625.5c38.6-1.4,70.2,27.2,73,60c3.2,37.1-30.8,74.2-75,72"/>
</g>
<g id="Слой_8">
	<path class="st2" d="M798.7,629.5c-38.6-1.4-70.2,27.2-73,60c-3.2,37.1,30.8,74.2,75,72"/>
</g>
<g id="Слой_9">
	<path class="st3" d="M1186.5,672.5c0.9-20.4,16-36.8,34-39c21.2-2.6,42.6,14.7,44,39"/>
</g>
<g id="Слой_10">
	<path class="st3" d="M868.5,669.5c0.9-20.4,16-36.8,34-39c21.2-2.6,42.6,14.7,44,39"/>
</g>
<g id="Слой_11">
	<path class="st3" d="M1024.5,831.2c1,20.4,19.1,36.8,40.8,39c25.4,2.6,51-14.7,52.7-39"/>
</g>
<g id="Слой_12">
	<circle class="st2" cx="910" cy="714" r="13.5"/>
</g>
<g id="Слой_13">
	<circle class="st2" cx="1224" cy="714" r="13.5"/>
</g>
</svg>
